<svg xmlns="http://www.w3.org/2000/svg" width="10" height="10" viewBox="0 0 13 13" fill="none">
  <path fill-rule="evenodd" clip-rule="evenodd" d="M0 0.75C0 0.551088 0.0790175 0.360322 0.21967 0.21967C0.360322 0.0790175 0.551088 0 0.75 0H10.25C10.4489 4.19176e-09 10.6397 0.0790175 10.7803 0.21967C10.921 0.360322 11 0.551088 11 0.75C11 0.948912 10.921 1.13968 10.7803 1.28033C10.6397 1.42098 10.4489 1.5 10.25 1.5H0.75C0.551088 1.5 0.360322 1.42098 0.21967 1.28033C0.0790175 1.13968 0 0.948912 0 0.75ZM0 4.25C0 4.05109 0.0790175 3.86032 0.21967 3.71967C0.360322 3.57902 0.551088 3.5 0.75 3.5H6.25C6.44891 3.5 6.63968 3.57902 6.78033 3.71967C6.92098 3.86032 7 4.05109 7 4.25C7 4.44891 6.92098 4.63968 6.78033 4.78033C6.63968 4.92098 6.44891 5 6.25 5H0.75C0.551088 5 0.360322 4.92098 0.21967 4.78033C0.0790175 4.63968 0 4.44891 0 4.25ZM0 7.75C0 7.55109 0.0790175 7.36032 0.21967 7.21967C0.360322 7.07902 0.551088 7 0.75 7H4.25C4.44891 7 4.63968 7.07902 4.78033 7.21967C4.92098 7.36032 5 7.55109 5 7.75C5 7.94891 4.92098 8.13968 4.78033 8.28033C4.63968 8.42098 4.44891 8.5 4.25 8.5H0.75C0.551088 8.5 0.360322 8.42098 0.21967 8.28033C0.0790175 8.13968 0 7.94891 0 7.75ZM12.78 9.47C12.9205 9.61063 12.9993 9.80125 12.9993 10C12.9993 10.1988 12.9205 10.3894 12.78 10.53L10.53 12.78C10.3894 12.9205 10.1988 12.9993 10 12.9993C9.80125 12.9993 9.61063 12.9205 9.47 12.78L7.22 10.53C7.14631 10.4613 7.08721 10.3785 7.04622 10.2865C7.00523 10.1945 6.98318 10.0952 6.98141 9.99452C6.97963 9.89382 6.99816 9.79379 7.03588 9.7004C7.0736 9.60701 7.12974 9.52218 7.20096 9.45096C7.27218 9.37974 7.35701 9.3236 7.4504 9.28588C7.54379 9.24816 7.64382 9.22963 7.74452 9.23141C7.84522 9.23318 7.94454 9.25523 8.03654 9.29622C8.12854 9.33721 8.21134 9.39631 8.28 9.47L9.25 10.44V4.75C9.25 4.55109 9.32902 4.36032 9.46967 4.21967C9.61032 4.07902 9.80109 4 10 4C10.1989 4 10.3897 4.07902 10.5303 4.21967C10.671 4.36032 10.75 4.55109 10.75 4.75V10.44L11.72 9.47C11.8606 9.32955 12.0512 9.25066 12.25 9.25066C12.4488 9.25066 12.6394 9.32955 12.78 9.47Z" fill="#64748B"/>
</svg>