<svg width="554" height="320" viewBox="0 0 554 320" fill="none" xmlns="http://www.w3.org/2000/svg">
<rect width="554" height="320" rx="2" fill="#484554"/>
<rect width="474" height="240" transform="translate(40 40)" fill="#484554"/>
<path d="M57.7921 42.7273V50H56.9114V43.6506H56.8688L55.0932 44.8295V43.9347L56.9114 42.7273H57.7921ZM60.7182 49.0057L60.6614 49.3892C60.6212 49.6591 60.5596 49.9479 60.4767 50.2557C60.3962 50.5634 60.3122 50.8535 60.2246 51.1257C60.137 51.398 60.0648 51.6146 60.008 51.7756H59.3688C59.3996 51.6241 59.4398 51.424 59.4895 51.1754C59.5392 50.9268 59.589 50.6487 59.6387 50.3409C59.6908 50.0355 59.7334 49.723 59.7665 49.4034L59.8091 49.0057H60.7182ZM64.375 50.0994C63.84 50.0994 63.3842 49.9538 63.0078 49.6626C62.6314 49.3691 62.3438 48.9441 62.1449 48.3878C61.946 47.8291 61.8466 47.1544 61.8466 46.3636C61.8466 45.5777 61.946 44.9065 62.1449 44.3501C62.3461 43.7914 62.6349 43.3653 63.0114 43.0717C63.3902 42.7758 63.8447 42.6278 64.375 42.6278C64.9053 42.6278 65.3587 42.7758 65.7351 43.0717C66.1139 43.3653 66.4027 43.7914 66.6016 44.3501C66.8028 44.9065 66.9034 45.5777 66.9034 46.3636C66.9034 47.1544 66.804 47.8291 66.6051 48.3878C66.4062 48.9441 66.1186 49.3691 65.7422 49.6626C65.3658 49.9538 64.91 50.0994 64.375 50.0994ZM64.375 49.3182C64.9053 49.3182 65.3172 49.0625 65.6108 48.5511C65.9044 48.0398 66.0511 47.3106 66.0511 46.3636C66.0511 45.7339 65.9837 45.1977 65.8487 44.755C65.7161 44.3123 65.5244 43.9749 65.2734 43.7429C65.0249 43.5109 64.7254 43.3949 64.375 43.3949C63.8494 43.3949 63.4387 43.6541 63.1428 44.1726C62.8468 44.6887 62.6989 45.419 62.6989 46.3636C62.6989 46.9934 62.7652 47.5284 62.8977 47.9688C63.0303 48.4091 63.2209 48.7441 63.4695 48.9737C63.7204 49.2034 64.0223 49.3182 64.375 49.3182ZM70.625 50.0994C70.09 50.0994 69.6342 49.9538 69.2578 49.6626C68.8814 49.3691 68.5938 48.9441 68.3949 48.3878C68.196 47.8291 68.0966 47.1544 68.0966 46.3636C68.0966 45.5777 68.196 44.9065 68.3949 44.3501C68.5961 43.7914 68.8849 43.3653 69.2614 43.0717C69.6402 42.7758 70.0947 42.6278 70.625 42.6278C71.1553 42.6278 71.6087 42.7758 71.9851 43.0717C72.3639 43.3653 72.6527 43.7914 72.8516 44.3501C73.0528 44.9065 73.1534 45.5777 73.1534 46.3636C73.1534 47.1544 73.054 47.8291 72.8551 48.3878C72.6562 48.9441 72.3686 49.3691 71.9922 49.6626C71.6158 49.9538 71.16 50.0994 70.625 50.0994ZM70.625 49.3182C71.1553 49.3182 71.5672 49.0625 71.8608 48.5511C72.1544 48.0398 72.3011 47.3106 72.3011 46.3636C72.3011 45.7339 72.2337 45.1977 72.0987 44.755C71.9661 44.3123 71.7744 43.9749 71.5234 43.7429C71.2749 43.5109 70.9754 43.3949 70.625 43.3949C70.0994 43.3949 69.6887 43.6541 69.3928 44.1726C69.0968 44.6887 68.9489 45.419 68.9489 46.3636C68.9489 46.9934 69.0152 47.5284 69.1477 47.9688C69.2803 48.4091 69.4709 48.7441 69.7195 48.9737C69.9704 49.2034 70.2723 49.3182 70.625 49.3182ZM76.875 50.0994C76.34 50.0994 75.8842 49.9538 75.5078 49.6626C75.1314 49.3691 74.8438 48.9441 74.6449 48.3878C74.446 47.8291 74.3466 47.1544 74.3466 46.3636C74.3466 45.5777 74.446 44.9065 74.6449 44.3501C74.8461 43.7914 75.1349 43.3653 75.5114 43.0717C75.8902 42.7758 76.3447 42.6278 76.875 42.6278C77.4053 42.6278 77.8587 42.7758 78.2351 43.0717C78.6139 43.3653 78.9027 43.7914 79.1016 44.3501C79.3028 44.9065 79.4034 45.5777 79.4034 46.3636C79.4034 47.1544 79.304 47.8291 79.1051 48.3878C78.9062 48.9441 78.6186 49.3691 78.2422 49.6626C77.8658 49.9538 77.41 50.0994 76.875 50.0994ZM76.875 49.3182C77.4053 49.3182 77.8172 49.0625 78.1108 48.5511C78.4044 48.0398 78.5511 47.3106 78.5511 46.3636C78.5511 45.7339 78.4837 45.1977 78.3487 44.755C78.2161 44.3123 78.0244 43.9749 77.7734 43.7429C77.5249 43.5109 77.2254 43.3949 76.875 43.3949C76.3494 43.3949 75.9387 43.6541 75.6428 44.1726C75.3468 44.6887 75.1989 45.419 75.1989 46.3636C75.1989 46.9934 75.2652 47.5284 75.3977 47.9688C75.5303 48.4091 75.7209 48.7441 75.9695 48.9737C76.2204 49.2034 76.5223 49.3182 76.875 49.3182Z" fill="white"/>
<path d="M64.4203 90.0994C63.9326 90.0994 63.5017 90.013 63.1277 89.8402C62.756 89.665 62.466 89.4247 62.2576 89.1193C62.0493 88.8116 61.9463 88.4612 61.9487 88.0682C61.9463 87.7604 62.0067 87.4763 62.1298 87.2159C62.2529 86.9531 62.421 86.7341 62.6341 86.5589C62.8495 86.3814 63.0898 86.2689 63.3549 86.2216V86.179C63.0069 86.089 62.7299 85.8937 62.524 85.593C62.318 85.29 62.2162 84.9455 62.2186 84.5597C62.2162 84.1903 62.3097 83.8601 62.4991 83.5689C62.6885 83.2777 62.9489 83.0481 63.2804 82.88C63.6142 82.7119 63.9941 82.6278 64.4203 82.6278C64.8417 82.6278 65.2181 82.7119 65.5495 82.88C65.881 83.0481 66.1414 83.2777 66.3308 83.5689C66.5225 83.8601 66.6196 84.1903 66.622 84.5597C66.6196 84.9455 66.5143 85.29 66.3059 85.593C66.1 85.8937 65.8265 86.089 65.4856 86.179V86.2216C65.7484 86.2689 65.9851 86.3814 66.1958 86.5589C66.4065 86.7341 66.5746 86.9531 66.7001 87.2159C66.8256 87.4763 66.8895 87.7604 66.8919 88.0682C66.8895 88.4612 66.783 88.8116 66.5723 89.1193C66.3639 89.4247 66.0739 89.665 65.7022 89.8402C65.3329 90.013 64.9056 90.0994 64.4203 90.0994ZM64.4203 89.3182C64.7493 89.3182 65.0334 89.2649 65.2725 89.1584C65.5117 89.0518 65.6963 88.9015 65.8265 88.7074C65.9567 88.5133 66.023 88.286 66.0254 88.0256C66.023 87.7509 65.952 87.5083 65.8123 87.2976C65.6726 87.0869 65.4821 86.9212 65.2406 86.8004C65.0015 86.6797 64.728 86.6193 64.4203 86.6193C64.1101 86.6193 63.8332 86.6797 63.5893 86.8004C63.3478 86.9212 63.1573 87.0869 63.0176 87.2976C62.8803 87.5083 62.8128 87.7509 62.8152 88.0256C62.8128 88.286 62.8755 88.5133 63.0034 88.7074C63.1336 88.9015 63.3194 89.0518 63.5609 89.1584C63.8024 89.2649 64.0888 89.3182 64.4203 89.3182ZM64.4203 85.8665C64.6807 85.8665 64.9115 85.8144 65.1127 85.7102C65.3163 85.6061 65.4761 85.4605 65.5922 85.2734C65.7082 85.0864 65.7673 84.8674 65.7697 84.6165C65.7673 84.3703 65.7093 84.156 65.5957 83.9737C65.4821 83.7891 65.3246 83.647 65.1234 83.5476C64.9222 83.4458 64.6878 83.3949 64.4203 83.3949C64.148 83.3949 63.9101 83.4458 63.7065 83.5476C63.5029 83.647 63.3455 83.7891 63.2342 83.9737C63.1229 84.156 63.0685 84.3703 63.0708 84.6165C63.0685 84.8674 63.1241 85.0864 63.2377 85.2734C63.3538 85.4605 63.5136 85.6061 63.7172 85.7102C63.9208 85.8144 64.1551 85.8665 64.4203 85.8665ZM70.625 90.0994C70.09 90.0994 69.6342 89.9538 69.2578 89.6626C68.8814 89.3691 68.5938 88.9441 68.3949 88.3878C68.196 87.8291 68.0966 87.1544 68.0966 86.3636C68.0966 85.5777 68.196 84.9065 68.3949 84.3501C68.5961 83.7914 68.8849 83.3653 69.2614 83.0717C69.6402 82.7758 70.0947 82.6278 70.625 82.6278C71.1553 82.6278 71.6087 82.7758 71.9851 83.0717C72.3639 83.3653 72.6527 83.7914 72.8516 84.3501C73.0528 84.9065 73.1534 85.5777 73.1534 86.3636C73.1534 87.1544 73.054 87.8291 72.8551 88.3878C72.6562 88.9441 72.3686 89.3691 71.9922 89.6626C71.6158 89.9538 71.16 90.0994 70.625 90.0994ZM70.625 89.3182C71.1553 89.3182 71.5672 89.0625 71.8608 88.5511C72.1544 88.0398 72.3011 87.3106 72.3011 86.3636C72.3011 85.7339 72.2337 85.1977 72.0987 84.755C71.9661 84.3123 71.7744 83.9749 71.5234 83.7429C71.2749 83.5109 70.9754 83.3949 70.625 83.3949C70.0994 83.3949 69.6887 83.6541 69.3928 84.1726C69.0968 84.6887 68.9489 85.419 68.9489 86.3636C68.9489 86.9934 69.0152 87.5284 69.1477 87.9688C69.2803 88.4091 69.4709 88.7441 69.7195 88.9737C69.9704 89.2034 70.2723 89.3182 70.625 89.3182ZM76.875 90.0994C76.34 90.0994 75.8842 89.9538 75.5078 89.6626C75.1314 89.3691 74.8438 88.9441 74.6449 88.3878C74.446 87.8291 74.3466 87.1544 74.3466 86.3636C74.3466 85.5777 74.446 84.9065 74.6449 84.3501C74.8461 83.7914 75.1349 83.3653 75.5114 83.0717C75.8902 82.7758 76.3447 82.6278 76.875 82.6278C77.4053 82.6278 77.8587 82.7758 78.2351 83.0717C78.6139 83.3653 78.9027 83.7914 79.1016 84.3501C79.3028 84.9065 79.4034 85.5777 79.4034 86.3636C79.4034 87.1544 79.304 87.8291 79.1051 88.3878C78.9062 88.9441 78.6186 89.3691 78.2422 89.6626C77.8658 89.9538 77.41 90.0994 76.875 90.0994ZM76.875 89.3182C77.4053 89.3182 77.8172 89.0625 78.1108 88.5511C78.4044 88.0398 78.5511 87.3106 78.5511 86.3636C78.5511 85.7339 78.4837 85.1977 78.3487 84.755C78.2161 84.3123 78.0244 83.9749 77.7734 83.7429C77.5249 83.5109 77.2254 83.3949 76.875 83.3949C76.3494 83.3949 75.9387 83.6541 75.6428 84.1726C75.3468 84.6887 75.1989 85.419 75.1989 86.3636C75.1989 86.9934 75.2652 87.5284 75.3977 87.9688C75.5303 88.4091 75.7209 88.7441 75.9695 88.9737C76.2204 89.2034 76.5223 89.3182 76.875 89.3182Z" fill="white"/>
<path d="M64.4274 130.099C64.1291 130.095 63.8308 130.038 63.5325 129.929C63.2342 129.82 62.9619 129.637 62.7157 129.379C62.4695 129.118 62.2718 128.767 62.1227 128.324C61.9735 127.879 61.899 127.32 61.899 126.648C61.899 126.004 61.9593 125.433 62.0801 124.936C62.2008 124.437 62.376 124.016 62.6056 123.675C62.8353 123.332 63.1123 123.072 63.4366 122.894C63.7633 122.717 64.1315 122.628 64.541 122.628C64.9482 122.628 65.3104 122.71 65.6277 122.873C65.9473 123.034 66.2077 123.259 66.4089 123.548C66.6101 123.836 66.7404 124.169 66.7995 124.545H65.9331C65.8526 124.219 65.6963 123.948 65.4643 123.732C65.2323 123.517 64.9245 123.409 64.541 123.409C63.9776 123.409 63.5337 123.654 63.2093 124.144C62.8874 124.634 62.7252 125.322 62.7228 126.207H62.7797C62.9122 126.006 63.0697 125.835 63.252 125.692C63.4366 125.548 63.6402 125.437 63.8627 125.359C64.0853 125.281 64.3208 125.241 64.5694 125.241C64.9861 125.241 65.3672 125.346 65.7129 125.554C66.0585 125.76 66.3355 126.045 66.5439 126.41C66.7522 126.772 66.8564 127.188 66.8564 127.656C66.8564 128.106 66.7557 128.518 66.5545 128.892C66.3533 129.264 66.0704 129.56 65.7058 129.78C65.3436 129.998 64.9174 130.104 64.4274 130.099ZM64.4274 129.318C64.7257 129.318 64.9932 129.244 65.2299 129.094C65.469 128.945 65.6573 128.745 65.7946 128.494C65.9342 128.243 66.0041 127.964 66.0041 127.656C66.0041 127.356 65.9366 127.082 65.8017 126.836C65.6691 126.587 65.4856 126.39 65.2512 126.243C65.0192 126.096 64.7541 126.023 64.4558 126.023C64.2309 126.023 64.0214 126.068 63.8272 126.158C63.6331 126.245 63.4627 126.366 63.3159 126.52C63.1715 126.674 63.0578 126.85 62.975 127.049C62.8921 127.246 62.8507 127.453 62.8507 127.67C62.8507 127.959 62.9181 128.229 63.0531 128.48C63.1904 128.731 63.3774 128.933 63.6142 129.087C63.8533 129.241 64.1243 129.318 64.4274 129.318ZM70.625 130.099C70.09 130.099 69.6342 129.954 69.2578 129.663C68.8814 129.369 68.5938 128.944 68.3949 128.388C68.196 127.829 68.0966 127.154 68.0966 126.364C68.0966 125.578 68.196 124.906 68.3949 124.35C68.5961 123.791 68.8849 123.365 69.2614 123.072C69.6402 122.776 70.0947 122.628 70.625 122.628C71.1553 122.628 71.6087 122.776 71.9851 123.072C72.3639 123.365 72.6527 123.791 72.8516 124.35C73.0528 124.906 73.1534 125.578 73.1534 126.364C73.1534 127.154 73.054 127.829 72.8551 128.388C72.6562 128.944 72.3686 129.369 71.9922 129.663C71.6158 129.954 71.16 130.099 70.625 130.099ZM70.625 129.318C71.1553 129.318 71.5672 129.062 71.8608 128.551C72.1544 128.04 72.3011 127.311 72.3011 126.364C72.3011 125.734 72.2337 125.198 72.0987 124.755C71.9661 124.312 71.7744 123.975 71.5234 123.743C71.2749 123.511 70.9754 123.395 70.625 123.395C70.0994 123.395 69.6887 123.654 69.3928 124.173C69.0968 124.689 68.9489 125.419 68.9489 126.364C68.9489 126.993 69.0152 127.528 69.1477 127.969C69.2803 128.409 69.4709 128.744 69.7195 128.974C69.9704 129.203 70.2723 129.318 70.625 129.318ZM76.875 130.099C76.34 130.099 75.8842 129.954 75.5078 129.663C75.1314 129.369 74.8438 128.944 74.6449 128.388C74.446 127.829 74.3466 127.154 74.3466 126.364C74.3466 125.578 74.446 124.906 74.6449 124.35C74.8461 123.791 75.1349 123.365 75.5114 123.072C75.8902 122.776 76.3447 122.628 76.875 122.628C77.4053 122.628 77.8587 122.776 78.2351 123.072C78.6139 123.365 78.9027 123.791 79.1016 124.35C79.3028 124.906 79.4034 125.578 79.4034 126.364C79.4034 127.154 79.304 127.829 79.1051 128.388C78.9062 128.944 78.6186 129.369 78.2422 129.663C77.8658 129.954 77.41 130.099 76.875 130.099ZM76.875 129.318C77.4053 129.318 77.8172 129.062 78.1108 128.551C78.4044 128.04 78.5511 127.311 78.5511 126.364C78.5511 125.734 78.4837 125.198 78.3487 124.755C78.2161 124.312 78.0244 123.975 77.7734 123.743C77.5249 123.511 77.2254 123.395 76.875 123.395C76.3494 123.395 75.9387 123.654 75.6428 124.173C75.3468 124.689 75.1989 125.419 75.1989 126.364C75.1989 126.993 75.2652 127.528 75.3977 127.969C75.5303 128.409 75.7209 128.744 75.9695 128.974C76.2204 129.203 76.5223 129.318 76.875 129.318Z" fill="white"/>
<path d="M61.6664 168.509V167.784L64.8624 162.727H65.388V163.849H65.0328L62.6181 167.67V167.727H66.9221V168.509H61.6664ZM65.0897 170V168.288V167.951V162.727H65.9277V170H65.0897ZM70.625 170.099C70.09 170.099 69.6342 169.954 69.2578 169.663C68.8814 169.369 68.5938 168.944 68.3949 168.388C68.196 167.829 68.0966 167.154 68.0966 166.364C68.0966 165.578 68.196 164.906 68.3949 164.35C68.5961 163.791 68.8849 163.365 69.2614 163.072C69.6402 162.776 70.0947 162.628 70.625 162.628C71.1553 162.628 71.6087 162.776 71.9851 163.072C72.3639 163.365 72.6527 163.791 72.8516 164.35C73.0528 164.906 73.1534 165.578 73.1534 166.364C73.1534 167.154 73.054 167.829 72.8551 168.388C72.6562 168.944 72.3686 169.369 71.9922 169.663C71.6158 169.954 71.16 170.099 70.625 170.099ZM70.625 169.318C71.1553 169.318 71.5672 169.062 71.8608 168.551C72.1544 168.04 72.3011 167.311 72.3011 166.364C72.3011 165.734 72.2337 165.198 72.0987 164.755C71.9661 164.312 71.7744 163.975 71.5234 163.743C71.2749 163.511 70.9754 163.395 70.625 163.395C70.0994 163.395 69.6887 163.654 69.3928 164.173C69.0968 164.689 68.9489 165.419 68.9489 166.364C68.9489 166.993 69.0152 167.528 69.1477 167.969C69.2803 168.409 69.4709 168.744 69.7195 168.974C69.9704 169.203 70.2723 169.318 70.625 169.318ZM76.875 170.099C76.34 170.099 75.8842 169.954 75.5078 169.663C75.1314 169.369 74.8438 168.944 74.6449 168.388C74.446 167.829 74.3466 167.154 74.3466 166.364C74.3466 165.578 74.446 164.906 74.6449 164.35C74.8461 163.791 75.1349 163.365 75.5114 163.072C75.8902 162.776 76.3447 162.628 76.875 162.628C77.4053 162.628 77.8587 162.776 78.2351 163.072C78.6139 163.365 78.9027 163.791 79.1016 164.35C79.3028 164.906 79.4034 165.578 79.4034 166.364C79.4034 167.154 79.304 167.829 79.1051 168.388C78.9062 168.944 78.6186 169.369 78.2422 169.663C77.8658 169.954 77.41 170.099 76.875 170.099ZM76.875 169.318C77.4053 169.318 77.8172 169.062 78.1108 168.551C78.4044 168.04 78.5511 167.311 78.5511 166.364C78.5511 165.734 78.4837 165.198 78.3487 164.755C78.2161 164.312 78.0244 163.975 77.7734 163.743C77.5249 163.511 77.2254 163.395 76.875 163.395C76.3494 163.395 75.9387 163.654 75.6428 164.173C75.3468 164.689 75.1989 165.419 75.1989 166.364C75.1989 166.993 75.2652 167.528 75.3977 167.969C75.5303 168.409 75.7209 168.744 75.9695 168.974C76.2204 169.203 76.5223 169.318 76.875 169.318Z" fill="white"/>
<path d="M62.1982 210V209.361L64.5987 206.733C64.8804 206.425 65.1125 206.158 65.2947 205.93C65.477 205.701 65.612 205.485 65.6996 205.284C65.7895 205.08 65.8345 204.867 65.8345 204.645C65.8345 204.389 65.773 204.168 65.6499 203.981C65.5291 203.794 65.3634 203.649 65.1527 203.548C64.942 203.446 64.7053 203.395 64.4425 203.395C64.1631 203.395 63.9193 203.453 63.7109 203.569C63.505 203.683 63.3452 203.842 63.2315 204.048C63.1203 204.254 63.0646 204.496 63.0646 204.773H62.2266C62.2266 204.347 62.3248 203.973 62.5213 203.651C62.7178 203.329 62.9853 203.078 63.3239 202.898C63.6648 202.718 64.0471 202.628 64.4709 202.628C64.897 202.628 65.2746 202.718 65.6037 202.898C65.9328 203.078 66.1908 203.32 66.3778 203.626C66.5649 203.931 66.6584 204.271 66.6584 204.645C66.6584 204.912 66.6098 205.174 66.5128 205.43C66.4181 205.683 66.2524 205.966 66.0156 206.278C65.7812 206.589 65.4557 206.967 65.0391 207.415L63.4055 209.162V209.219H66.7862V210H62.1982ZM70.625 210.099C70.09 210.099 69.6342 209.954 69.2578 209.663C68.8814 209.369 68.5938 208.944 68.3949 208.388C68.196 207.829 68.0966 207.154 68.0966 206.364C68.0966 205.578 68.196 204.906 68.3949 204.35C68.5961 203.791 68.8849 203.365 69.2614 203.072C69.6402 202.776 70.0947 202.628 70.625 202.628C71.1553 202.628 71.6087 202.776 71.9851 203.072C72.3639 203.365 72.6527 203.791 72.8516 204.35C73.0528 204.906 73.1534 205.578 73.1534 206.364C73.1534 207.154 73.054 207.829 72.8551 208.388C72.6562 208.944 72.3686 209.369 71.9922 209.663C71.6158 209.954 71.16 210.099 70.625 210.099ZM70.625 209.318C71.1553 209.318 71.5672 209.062 71.8608 208.551C72.1544 208.04 72.3011 207.311 72.3011 206.364C72.3011 205.734 72.2337 205.198 72.0987 204.755C71.9661 204.312 71.7744 203.975 71.5234 203.743C71.2749 203.511 70.9754 203.395 70.625 203.395C70.0994 203.395 69.6887 203.654 69.3928 204.173C69.0968 204.689 68.9489 205.419 68.9489 206.364C68.9489 206.993 69.0152 207.528 69.1477 207.969C69.2803 208.409 69.4709 208.744 69.7195 208.974C69.9704 209.203 70.2723 209.318 70.625 209.318ZM76.875 210.099C76.34 210.099 75.8842 209.954 75.5078 209.663C75.1314 209.369 74.8438 208.944 74.6449 208.388C74.446 207.829 74.3466 207.154 74.3466 206.364C74.3466 205.578 74.446 204.906 74.6449 204.35C74.8461 203.791 75.1349 203.365 75.5114 203.072C75.8902 202.776 76.3447 202.628 76.875 202.628C77.4053 202.628 77.8587 202.776 78.2351 203.072C78.6139 203.365 78.9027 203.791 79.1016 204.35C79.3028 204.906 79.4034 205.578 79.4034 206.364C79.4034 207.154 79.304 207.829 79.1051 208.388C78.9062 208.944 78.6186 209.369 78.2422 209.663C77.8658 209.954 77.41 210.099 76.875 210.099ZM76.875 209.318C77.4053 209.318 77.8172 209.062 78.1108 208.551C78.4044 208.04 78.5511 207.311 78.5511 206.364C78.5511 205.734 78.4837 205.198 78.3487 204.755C78.2161 204.312 78.0244 203.975 77.7734 203.743C77.5249 203.511 77.2254 203.395 76.875 203.395C76.3494 203.395 75.9387 203.654 75.6428 204.173C75.3468 204.689 75.1989 205.419 75.1989 206.364C75.1989 206.993 75.2652 207.528 75.3977 207.969C75.5303 208.409 75.7209 208.744 75.9695 208.974C76.2204 209.203 76.5223 209.318 76.875 209.318Z" fill="white"/>
<path d="M76.875 250.099C76.34 250.099 75.8842 249.954 75.5078 249.663C75.1314 249.369 74.8438 248.944 74.6449 248.388C74.446 247.829 74.3466 247.154 74.3466 246.364C74.3466 245.578 74.446 244.906 74.6449 244.35C74.8461 243.791 75.1349 243.365 75.5114 243.072C75.8902 242.776 76.3447 242.628 76.875 242.628C77.4053 242.628 77.8587 242.776 78.2351 243.072C78.6139 243.365 78.9027 243.791 79.1016 244.35C79.3028 244.906 79.4034 245.578 79.4034 246.364C79.4034 247.154 79.304 247.829 79.1051 248.388C78.9062 248.944 78.6186 249.369 78.2422 249.663C77.8658 249.954 77.41 250.099 76.875 250.099ZM76.875 249.318C77.4053 249.318 77.8172 249.062 78.1108 248.551C78.4044 248.04 78.5511 247.311 78.5511 246.364C78.5511 245.734 78.4837 245.198 78.3487 244.755C78.2161 244.312 78.0244 243.975 77.7734 243.743C77.5249 243.511 77.2254 243.395 76.875 243.395C76.3494 243.395 75.9387 243.654 75.6428 244.173C75.3468 244.689 75.1989 245.419 75.1989 246.364C75.1989 246.993 75.2652 247.528 75.3977 247.969C75.5303 248.409 75.7209 248.744 75.9695 248.974C76.2204 249.203 76.5223 249.318 76.875 249.318Z" fill="white"/>
<line x1="96.5" y1="81.9" x2="513.5" y2="81.9" stroke="#E2E8F0" stroke-linecap="square" stroke-dasharray="1 4"/>
<line x1="96.5" y1="124.3" x2="513.5" y2="124.3" stroke="#E2E8F0" stroke-linecap="square" stroke-dasharray="1 4"/>
<line x1="96.5" y1="166.7" x2="513.5" y2="166.7" stroke="#E2E8F0" stroke-linecap="square" stroke-dasharray="1 4"/>
<line x1="96.5" y1="209.1" x2="513.5" y2="209.1" stroke="#E2E8F0" stroke-linecap="square" stroke-dasharray="1 4"/>
<line x1="96.5" y1="251.5" x2="513.5" y2="251.5" stroke="#E2E8F0" stroke-linecap="square"/>
<line x1="462.25" y1="40.5" x2="462.25" y2="251.5" stroke="#E2E8F0" stroke-linecap="square" stroke-dasharray="1 4"/>
<line x1="410" y1="40.5" x2="410" y2="251.5" stroke="#E2E8F0" stroke-linecap="square" stroke-dasharray="1 4"/>
<line x1="357.75" y1="40.5" x2="357.75" y2="251.5" stroke="#E2E8F0" stroke-linecap="square" stroke-dasharray="1 4"/>
<line x1="305.5" y1="40.5" x2="305.5" y2="251.5" stroke="#E2E8F0" stroke-linecap="square" stroke-dasharray="1 4"/>
<line x1="253.25" y1="40.5" x2="253.25" y2="251.5" stroke="#E2E8F0" stroke-linecap="square" stroke-dasharray="1 4"/>
<line x1="201" y1="40.5" x2="201" y2="251.5" stroke="#E2E8F0" stroke-linecap="square" stroke-dasharray="1 4"/>
<line x1="148.75" y1="40.5" x2="148.75" y2="251.5" stroke="#E2E8F0" stroke-linecap="square" stroke-dasharray="1 4"/>
<rect x="96" y="110.667" width="25.6557" height="141.333" rx="1" fill="#8576FF"/>
<rect x="131.668" y="53.881" width="25.6557" height="198.119" rx="1" fill="#8576FF"/>
<rect x="167.335" y="87.9524" width="25.6557" height="164.048" rx="1" fill="#8576FF"/>
<rect x="203.003" y="159.881" width="25.6557" height="92.119" rx="1" fill="#8576FF"/>
<rect x="238.671" y="40" width="25.6557" height="212" rx="1" fill="#8576FF"/>
<rect x="274.338" y="130.857" width="25.6557" height="121.143" rx="1" fill="#8576FF"/>
<rect x="310.006" y="69.0238" width="25.6557" height="182.976" rx="1" fill="#8576FF"/>
<rect x="345.674" y="175.024" width="25.6557" height="76.9762" rx="1" fill="#8576FF"/>
<rect x="381.341" y="71.5476" width="25.6557" height="180.452" rx="1" fill="#8576FF"/>
<rect x="417.009" y="110.667" width="25.6557" height="141.333" rx="1" fill="#8576FF"/>
<rect x="452.677" y="48.8333" width="25.6557" height="203.167" rx="1" fill="#8576FF"/>
<rect x="488.345" y="123.286" width="25.6557" height="128.714" rx="1" fill="#8576FF"/>
<path d="M104.958 270.727H105.838V275.926C105.838 276.39 105.753 276.784 105.583 277.109C105.412 277.433 105.172 277.679 104.862 277.847C104.552 278.015 104.186 278.099 103.765 278.099C103.367 278.099 103.013 278.027 102.703 277.883C102.393 277.736 102.149 277.528 101.971 277.258C101.794 276.988 101.705 276.667 101.705 276.295H102.571C102.571 276.501 102.622 276.681 102.724 276.835C102.828 276.987 102.97 277.105 103.15 277.19C103.33 277.276 103.535 277.318 103.765 277.318C104.018 277.318 104.233 277.265 104.411 277.158C104.588 277.052 104.723 276.896 104.816 276.69C104.91 276.481 104.958 276.227 104.958 275.926V270.727ZM109.095 278.128C108.749 278.128 108.435 278.063 108.154 277.933C107.872 277.8 107.648 277.609 107.483 277.361C107.317 277.11 107.234 276.807 107.234 276.452C107.234 276.139 107.296 275.886 107.419 275.692C107.542 275.495 107.706 275.341 107.912 275.23C108.118 275.119 108.346 275.036 108.594 274.982C108.845 274.925 109.097 274.88 109.35 274.847C109.682 274.804 109.951 274.772 110.157 274.751C110.365 274.727 110.516 274.688 110.611 274.634C110.708 274.579 110.757 274.484 110.757 274.349V274.321C110.757 273.971 110.661 273.698 110.469 273.504C110.28 273.31 109.992 273.213 109.606 273.213C109.206 273.213 108.892 273.301 108.665 273.476C108.438 273.651 108.278 273.838 108.186 274.037L107.39 273.753C107.532 273.421 107.722 273.163 107.958 272.979C108.198 272.792 108.458 272.661 108.74 272.588C109.024 272.512 109.303 272.474 109.578 272.474C109.753 272.474 109.954 272.496 110.181 272.538C110.411 272.579 110.632 272.663 110.846 272.79C111.061 272.918 111.24 273.111 111.382 273.369C111.524 273.627 111.595 273.973 111.595 274.406V278H110.757V277.261H110.714C110.657 277.38 110.563 277.506 110.43 277.641C110.297 277.776 110.121 277.891 109.901 277.986C109.681 278.08 109.412 278.128 109.095 278.128ZM109.223 277.375C109.554 277.375 109.833 277.31 110.061 277.18C110.29 277.049 110.463 276.881 110.579 276.675C110.698 276.469 110.757 276.253 110.757 276.026V275.259C110.721 275.301 110.643 275.34 110.522 275.376C110.404 275.409 110.267 275.438 110.11 275.464C109.957 275.488 109.806 275.509 109.659 275.528C109.515 275.545 109.398 275.559 109.308 275.571C109.09 275.599 108.886 275.646 108.697 275.71C108.51 275.771 108.359 275.865 108.243 275.99C108.129 276.113 108.072 276.281 108.072 276.494C108.072 276.786 108.18 277.006 108.395 277.155C108.613 277.302 108.889 277.375 109.223 277.375ZM113.963 274.719V278H113.124V272.545H113.934V273.398H114.005C114.133 273.121 114.327 272.898 114.588 272.73C114.848 272.56 115.184 272.474 115.596 272.474C115.965 272.474 116.289 272.55 116.566 272.702C116.843 272.851 117.058 273.078 117.212 273.384C117.366 273.687 117.443 274.07 117.443 274.534V278H116.605V274.591C116.605 274.162 116.493 273.829 116.271 273.589C116.048 273.348 115.743 273.227 115.355 273.227C115.087 273.227 114.848 273.285 114.637 273.401C114.429 273.517 114.264 273.687 114.144 273.909C114.023 274.132 113.963 274.402 113.963 274.719Z" fill="white"/>
<path d="M137.381 278V270.727H141.741V271.509H138.261V273.966H141.415V274.747H138.261V278H137.381ZM145.023 278.114C144.497 278.114 144.044 277.998 143.663 277.766C143.284 277.531 142.991 277.205 142.786 276.786C142.582 276.364 142.48 275.874 142.48 275.315C142.48 274.757 142.582 274.264 142.786 273.838C142.991 273.41 143.278 273.076 143.645 272.837C144.014 272.595 144.445 272.474 144.938 272.474C145.222 272.474 145.502 272.522 145.779 272.616C146.056 272.711 146.308 272.865 146.536 273.078C146.763 273.289 146.944 273.568 147.079 273.916C147.214 274.264 147.281 274.693 147.281 275.202V275.557H143.077V274.832H146.429C146.429 274.525 146.367 274.25 146.244 274.009C146.124 273.767 145.951 273.576 145.726 273.437C145.503 273.297 145.241 273.227 144.938 273.227C144.604 273.227 144.315 273.31 144.071 273.476C143.83 273.639 143.644 273.852 143.513 274.115C143.383 274.378 143.318 274.66 143.318 274.96V275.443C143.318 275.855 143.389 276.204 143.531 276.491C143.676 276.775 143.876 276.991 144.131 277.141C144.387 277.287 144.684 277.361 145.023 277.361C145.243 277.361 145.442 277.33 145.619 277.268C145.799 277.205 145.954 277.11 146.085 276.984C146.215 276.857 146.315 276.698 146.386 276.509L147.196 276.736C147.111 277.01 146.968 277.252 146.766 277.46C146.565 277.666 146.317 277.827 146.021 277.943C145.725 278.057 145.392 278.114 145.023 278.114ZM148.67 278V270.727H149.508V273.412H149.579C149.64 273.317 149.726 273.196 149.835 273.05C149.946 272.901 150.104 272.768 150.31 272.652C150.519 272.534 150.8 272.474 151.156 272.474C151.615 272.474 152.02 272.589 152.37 272.819C152.72 273.049 152.994 273.374 153.19 273.795C153.387 274.217 153.485 274.714 153.485 275.287C153.485 275.865 153.387 276.365 153.19 276.789C152.994 277.21 152.722 277.537 152.374 277.769C152.026 277.999 151.624 278.114 151.17 278.114C150.819 278.114 150.539 278.056 150.328 277.94C150.117 277.821 149.955 277.687 149.842 277.538C149.728 277.387 149.64 277.261 149.579 277.162H149.479V278H148.67ZM149.494 275.273C149.494 275.685 149.554 276.048 149.675 276.363C149.795 276.675 149.972 276.92 150.204 277.098C150.436 277.273 150.72 277.361 151.056 277.361C151.406 277.361 151.699 277.268 151.933 277.084C152.17 276.897 152.348 276.646 152.466 276.331C152.587 276.014 152.647 275.661 152.647 275.273C152.647 274.889 152.588 274.544 152.469 274.236C152.353 273.926 152.177 273.681 151.94 273.501C151.706 273.318 151.411 273.227 151.056 273.227C150.715 273.227 150.429 273.314 150.197 273.487C149.965 273.657 149.79 273.896 149.671 274.204C149.553 274.509 149.494 274.866 149.494 275.273Z" fill="white"/>
<path d="M172.505 270.727H173.556L176.027 276.764H176.113L178.584 270.727H179.635V278H178.812V272.474H178.741L176.468 278H175.672L173.4 272.474H173.329V278H172.505V270.727ZM182.893 278.128C182.547 278.128 182.233 278.063 181.952 277.933C181.67 277.8 181.446 277.609 181.28 277.361C181.115 277.11 181.032 276.807 181.032 276.452C181.032 276.139 181.093 275.886 181.217 275.692C181.34 275.495 181.504 275.341 181.71 275.23C181.916 275.119 182.143 275.036 182.392 274.982C182.643 274.925 182.895 274.88 183.148 274.847C183.48 274.804 183.748 274.772 183.954 274.751C184.163 274.727 184.314 274.688 184.409 274.634C184.506 274.579 184.555 274.484 184.555 274.349V274.321C184.555 273.971 184.459 273.698 184.267 273.504C184.078 273.31 183.79 273.213 183.404 273.213C183.004 273.213 182.69 273.301 182.463 273.476C182.236 273.651 182.076 273.838 181.984 274.037L181.188 273.753C181.33 273.421 181.52 273.163 181.756 272.979C181.995 272.792 182.256 272.661 182.538 272.588C182.822 272.512 183.101 272.474 183.376 272.474C183.551 272.474 183.752 272.496 183.979 272.538C184.209 272.579 184.43 272.663 184.643 272.79C184.859 272.918 185.038 273.111 185.18 273.369C185.322 273.627 185.393 273.973 185.393 274.406V278H184.555V277.261H184.512C184.455 277.38 184.36 277.506 184.228 277.641C184.095 277.776 183.919 277.891 183.699 277.986C183.479 278.08 183.21 278.128 182.893 278.128ZM183.021 277.375C183.352 277.375 183.631 277.31 183.859 277.18C184.088 277.049 184.261 276.881 184.377 276.675C184.495 276.469 184.555 276.253 184.555 276.026V275.259C184.519 275.301 184.441 275.34 184.32 275.376C184.202 275.409 184.065 275.438 183.908 275.464C183.754 275.488 183.604 275.509 183.457 275.528C183.313 275.545 183.196 275.559 183.106 275.571C182.888 275.599 182.684 275.646 182.495 275.71C182.308 275.771 182.156 275.865 182.04 275.99C181.927 276.113 181.87 276.281 181.87 276.494C181.87 276.786 181.978 277.006 182.193 277.155C182.411 277.302 182.687 277.375 183.021 277.375ZM186.922 278V272.545H187.732V273.369H187.789C187.888 273.099 188.068 272.88 188.329 272.712C188.589 272.544 188.883 272.46 189.209 272.46C189.271 272.46 189.348 272.461 189.44 272.464C189.532 272.466 189.602 272.47 189.65 272.474V273.327C189.621 273.32 189.556 273.309 189.454 273.295C189.355 273.278 189.249 273.27 189.138 273.27C188.873 273.27 188.636 273.326 188.428 273.437C188.222 273.546 188.059 273.697 187.938 273.891C187.82 274.083 187.76 274.302 187.76 274.548V278H186.922Z" fill="white"/>
<path d="M209.143 278H208.22L210.89 270.727H211.799L214.47 278H213.546L211.373 271.878H211.316L209.143 278ZM209.484 275.159H213.205V275.94H209.484V275.159ZM215.489 280.045V272.545H216.298V273.412H216.398C216.459 273.317 216.545 273.196 216.653 273.05C216.765 272.901 216.923 272.768 217.129 272.652C217.338 272.534 217.619 272.474 217.975 272.474C218.434 272.474 218.839 272.589 219.189 272.819C219.539 273.049 219.813 273.374 220.009 273.795C220.206 274.217 220.304 274.714 220.304 275.287C220.304 275.865 220.206 276.365 220.009 276.789C219.813 277.21 219.541 277.537 219.193 277.769C218.845 277.999 218.443 278.114 217.989 278.114C217.638 278.114 217.358 278.056 217.147 277.94C216.936 277.821 216.774 277.687 216.661 277.538C216.547 277.387 216.459 277.261 216.398 277.162H216.327V280.045H215.489ZM216.313 275.273C216.313 275.685 216.373 276.048 216.494 276.363C216.614 276.675 216.791 276.92 217.023 277.098C217.255 277.273 217.539 277.361 217.875 277.361C218.225 277.361 218.518 277.268 218.752 277.084C218.989 276.897 219.167 276.646 219.285 276.331C219.406 276.014 219.466 275.661 219.466 275.273C219.466 274.889 219.407 274.544 219.288 274.236C219.172 273.926 218.996 273.681 218.759 273.501C218.525 273.318 218.23 273.227 217.875 273.227C217.534 273.227 217.248 273.314 217.016 273.487C216.784 273.657 216.609 273.896 216.49 274.204C216.372 274.509 216.313 274.866 216.313 275.273ZM221.582 278V272.545H222.392V273.369H222.449C222.548 273.099 222.728 272.88 222.989 272.712C223.249 272.544 223.543 272.46 223.869 272.46C223.931 272.46 224.008 272.461 224.1 272.464C224.193 272.466 224.262 272.47 224.31 272.474V273.327C224.281 273.32 224.216 273.309 224.114 273.295C224.015 273.278 223.91 273.27 223.798 273.27C223.533 273.27 223.296 273.326 223.088 273.437C222.882 273.546 222.719 273.697 222.598 273.891C222.48 274.083 222.421 274.302 222.421 274.548V278H221.582Z" fill="white"/>
<path d="M242.68 270.727H243.731L246.202 276.764H246.287L248.759 270.727H249.81V278H248.986V272.474H248.915L246.643 278H245.847L243.574 272.474H243.503V278H242.68V270.727ZM253.067 278.128C252.722 278.128 252.408 278.063 252.126 277.933C251.845 277.8 251.621 277.609 251.455 277.361C251.29 277.11 251.207 276.807 251.207 276.452C251.207 276.139 251.268 275.886 251.391 275.692C251.514 275.495 251.679 275.341 251.885 275.23C252.091 275.119 252.318 275.036 252.567 274.982C252.818 274.925 253.07 274.88 253.323 274.847C253.655 274.804 253.923 274.772 254.129 274.751C254.338 274.727 254.489 274.688 254.584 274.634C254.681 274.579 254.729 274.484 254.729 274.349V274.321C254.729 273.971 254.634 273.698 254.442 273.504C254.252 273.31 253.965 273.213 253.579 273.213C253.179 273.213 252.865 273.301 252.638 273.476C252.411 273.651 252.251 273.838 252.158 274.037L251.363 273.753C251.505 273.421 251.694 273.163 251.931 272.979C252.17 272.792 252.431 272.661 252.712 272.588C252.996 272.512 253.276 272.474 253.55 272.474C253.726 272.474 253.927 272.496 254.154 272.538C254.384 272.579 254.605 272.663 254.818 272.79C255.034 272.918 255.212 273.111 255.354 273.369C255.496 273.627 255.567 273.973 255.567 274.406V278H254.729V277.261H254.687C254.63 277.38 254.535 277.506 254.403 277.641C254.27 277.776 254.094 277.891 253.874 277.986C253.653 278.08 253.385 278.128 253.067 278.128ZM253.195 277.375C253.527 277.375 253.806 277.31 254.033 277.18C254.263 277.049 254.436 276.881 254.552 276.675C254.67 276.469 254.729 276.253 254.729 276.026V275.259C254.694 275.301 254.616 275.34 254.495 275.376C254.377 275.409 254.239 275.438 254.083 275.464C253.929 275.488 253.779 275.509 253.632 275.528C253.488 275.545 253.371 275.559 253.281 275.571C253.063 275.599 252.859 275.646 252.67 275.71C252.483 275.771 252.331 275.865 252.215 275.99C252.102 276.113 252.045 276.281 252.045 276.494C252.045 276.786 252.152 277.006 252.368 277.155C252.586 277.302 252.862 277.375 253.195 277.375ZM257.442 280.045C257.3 280.045 257.173 280.034 257.062 280.01C256.95 279.989 256.873 279.967 256.831 279.946L257.044 279.207C257.247 279.259 257.427 279.278 257.584 279.264C257.74 279.25 257.878 279.18 257.999 279.055C258.122 278.932 258.235 278.732 258.336 278.455L258.493 278.028L256.476 272.545H257.385L258.89 276.892H258.947L260.453 272.545H261.362L259.047 278.795C258.943 279.077 258.814 279.31 258.66 279.495C258.506 279.682 258.327 279.821 258.123 279.911C257.922 280 257.695 280.045 257.442 280.045Z" fill="white"/>
<path d="M282.37 270.727H283.251V275.926C283.251 276.39 283.165 276.784 282.995 277.109C282.824 277.433 282.584 277.679 282.274 277.847C281.964 278.015 281.598 278.099 281.177 278.099C280.779 278.099 280.425 278.027 280.115 277.883C279.805 277.736 279.561 277.528 279.383 277.258C279.206 276.988 279.117 276.667 279.117 276.295H279.983C279.983 276.501 280.034 276.681 280.136 276.835C280.24 276.987 280.382 277.105 280.562 277.19C280.742 277.276 280.947 277.318 281.177 277.318C281.43 277.318 281.645 277.265 281.823 277.158C282.001 277.052 282.135 276.896 282.228 276.69C282.323 276.481 282.37 276.227 282.37 275.926V270.727ZM288.339 275.77V272.545H289.177V278H288.339V277.077H288.282C288.155 277.354 287.956 277.589 287.686 277.783C287.416 277.975 287.075 278.071 286.663 278.071C286.322 278.071 286.019 277.996 285.754 277.847C285.489 277.696 285.281 277.469 285.129 277.165C284.978 276.86 284.902 276.475 284.902 276.011V272.545H285.74V275.955C285.74 276.352 285.851 276.67 286.074 276.906C286.299 277.143 286.585 277.261 286.933 277.261C287.141 277.261 287.353 277.208 287.569 277.102C287.787 276.995 287.969 276.832 288.116 276.612C288.265 276.391 288.339 276.111 288.339 275.77ZM291.55 274.719V278H290.712V272.545H291.522V273.398H291.593C291.721 273.121 291.915 272.898 292.175 272.73C292.436 272.56 292.772 272.474 293.184 272.474C293.553 272.474 293.876 272.55 294.153 272.702C294.43 272.851 294.646 273.078 294.8 273.384C294.954 273.687 295.031 274.07 295.031 274.534V278H294.192V274.591C294.192 274.162 294.081 273.829 293.859 273.589C293.636 273.348 293.331 273.227 292.942 273.227C292.675 273.227 292.436 273.285 292.225 273.401C292.017 273.517 291.852 273.687 291.732 273.909C291.611 274.132 291.55 274.402 291.55 274.719Z" fill="white"/>
<path d="M319.608 270.727H320.489V275.926C320.489 276.39 320.404 276.784 320.233 277.109C320.063 277.433 319.822 277.679 319.512 277.847C319.202 278.015 318.836 278.099 318.415 278.099C318.017 278.099 317.663 278.027 317.353 277.883C317.043 277.736 316.799 277.528 316.622 277.258C316.444 276.988 316.355 276.667 316.355 276.295H317.222C317.222 276.501 317.273 276.681 317.374 276.835C317.479 276.987 317.621 277.105 317.801 277.19C317.981 277.276 318.185 277.318 318.415 277.318C318.668 277.318 318.884 277.265 319.061 277.158C319.239 277.052 319.374 276.896 319.466 276.69C319.561 276.481 319.608 276.227 319.608 275.926V270.727ZM325.578 275.77V272.545H326.416V278H325.578V277.077H325.521C325.393 277.354 325.194 277.589 324.924 277.783C324.654 277.975 324.313 278.071 323.901 278.071C323.561 278.071 323.258 277.996 322.992 277.847C322.727 277.696 322.519 277.469 322.367 277.165C322.216 276.86 322.14 276.475 322.14 276.011V272.545H322.978V275.955C322.978 276.352 323.089 276.67 323.312 276.906C323.537 277.143 323.823 277.261 324.171 277.261C324.38 277.261 324.592 277.208 324.807 277.102C325.025 276.995 325.207 276.832 325.354 276.612C325.503 276.391 325.578 276.111 325.578 275.77ZM328.789 270.727V278H327.951V270.727H328.789Z" fill="white"/>
<path d="M350.098 278H349.175L351.845 270.727H352.754L355.425 278H354.501L352.328 271.878H352.271L350.098 278ZM350.439 275.159H354.16V275.94H350.439V275.159ZM359.881 275.77V272.545H360.719V278H359.881V277.077H359.824C359.697 277.354 359.498 277.589 359.228 277.783C358.958 277.975 358.617 278.071 358.205 278.071C357.864 278.071 357.561 277.996 357.296 277.847C357.031 277.696 356.823 277.469 356.671 277.165C356.52 276.86 356.444 276.475 356.444 276.011V272.545H357.282V275.955C357.282 276.352 357.393 276.67 357.616 276.906C357.841 277.143 358.127 277.261 358.475 277.261C358.683 277.261 358.895 277.208 359.111 277.102C359.329 276.995 359.511 276.832 359.658 276.612C359.807 276.391 359.881 276.111 359.881 275.77ZM364.456 280.159C364.051 280.159 363.703 280.107 363.412 280.003C363.121 279.901 362.878 279.766 362.684 279.598C362.492 279.432 362.34 279.255 362.226 279.065L362.894 278.597C362.969 278.696 363.065 278.81 363.181 278.938C363.297 279.068 363.456 279.18 363.657 279.275C363.861 279.372 364.127 279.42 364.456 279.42C364.896 279.42 365.26 279.314 365.546 279.101C365.833 278.888 365.976 278.554 365.976 278.099V276.991H365.905C365.843 277.091 365.756 277.214 365.642 277.361C365.531 277.505 365.37 277.634 365.159 277.748C364.951 277.859 364.669 277.915 364.314 277.915C363.874 277.915 363.478 277.811 363.128 277.602C362.78 277.394 362.504 277.091 362.301 276.693C362.099 276.295 361.999 275.812 361.999 275.244C361.999 274.686 362.097 274.199 362.293 273.785C362.49 273.368 362.763 273.046 363.114 272.819C363.464 272.589 363.869 272.474 364.328 272.474C364.683 272.474 364.965 272.534 365.173 272.652C365.384 272.768 365.545 272.901 365.656 273.05C365.77 273.196 365.858 273.317 365.919 273.412H366.004V272.545H366.814V278.156C366.814 278.625 366.707 279.006 366.494 279.3C366.284 279.596 366 279.812 365.642 279.95C365.287 280.089 364.892 280.159 364.456 280.159ZM364.428 277.162C364.764 277.162 365.048 277.085 365.28 276.931C365.512 276.777 365.688 276.556 365.809 276.267C365.93 275.978 365.99 275.633 365.99 275.23C365.99 274.837 365.931 274.49 365.813 274.19C365.694 273.889 365.519 273.653 365.287 273.483C365.055 273.312 364.769 273.227 364.428 273.227C364.073 273.227 363.777 273.317 363.54 273.497C363.305 273.677 363.129 273.919 363.011 274.222C362.895 274.525 362.837 274.861 362.837 275.23C362.837 275.609 362.896 275.944 363.014 276.235C363.135 276.524 363.313 276.751 363.547 276.917C363.784 277.08 364.077 277.162 364.428 277.162Z" fill="white"/>
<path d="M389.462 272.545C389.42 272.186 389.247 271.906 388.944 271.707C388.641 271.509 388.269 271.409 387.829 271.409C387.507 271.409 387.225 271.461 386.984 271.565C386.745 271.67 386.558 271.813 386.423 271.995C386.29 272.177 386.224 272.384 386.224 272.616C386.224 272.811 386.27 272.978 386.362 273.117C386.457 273.254 386.578 273.369 386.725 273.462C386.871 273.552 387.025 273.626 387.186 273.685C387.347 273.742 387.495 273.788 387.63 273.824L388.369 274.023C388.558 274.072 388.769 274.141 389.001 274.229C389.235 274.316 389.459 274.436 389.672 274.587C389.887 274.737 390.065 274.928 390.205 275.163C390.344 275.397 390.414 275.685 390.414 276.026C390.414 276.419 390.311 276.774 390.105 277.091C389.902 277.408 389.603 277.66 389.21 277.847C388.82 278.034 388.345 278.128 387.786 278.128C387.265 278.128 386.814 278.044 386.433 277.876C386.055 277.708 385.756 277.473 385.538 277.173C385.323 276.872 385.201 276.523 385.173 276.125H386.082C386.105 276.4 386.198 276.627 386.359 276.807C386.522 276.984 386.728 277.117 386.977 277.205C387.228 277.29 387.497 277.332 387.786 277.332C388.122 277.332 388.424 277.278 388.692 277.169C388.959 277.058 389.171 276.904 389.328 276.707C389.484 276.509 389.562 276.277 389.562 276.011C389.562 275.77 389.494 275.573 389.359 275.422C389.225 275.27 389.047 275.147 388.827 275.053C388.607 274.958 388.369 274.875 388.113 274.804L387.218 274.548C386.65 274.385 386.2 274.152 385.869 273.849C385.537 273.546 385.372 273.149 385.372 272.659C385.372 272.252 385.482 271.897 385.702 271.594C385.924 271.288 386.223 271.052 386.597 270.884C386.973 270.713 387.393 270.628 387.857 270.628C388.326 270.628 388.743 270.712 389.107 270.88C389.472 271.046 389.761 271.273 389.974 271.562C390.189 271.851 390.303 272.179 390.315 272.545H389.462ZM394.035 278.114C393.51 278.114 393.056 277.998 392.675 277.766C392.297 277.531 392.004 277.205 391.798 276.786C391.595 276.364 391.493 275.874 391.493 275.315C391.493 274.757 391.595 274.264 391.798 273.838C392.004 273.41 392.291 273.076 392.658 272.837C393.027 272.595 393.458 272.474 393.95 272.474C394.234 272.474 394.515 272.522 394.792 272.616C395.069 272.711 395.321 272.865 395.548 273.078C395.775 273.289 395.957 273.568 396.092 273.916C396.226 274.264 396.294 274.693 396.294 275.202V275.557H392.089V274.832H395.442C395.442 274.525 395.38 274.25 395.257 274.009C395.136 273.767 394.963 273.576 394.739 273.437C394.516 273.297 394.253 273.227 393.95 273.227C393.616 273.227 393.328 273.31 393.084 273.476C392.842 273.639 392.656 273.852 392.526 274.115C392.396 274.378 392.331 274.66 392.331 274.96V275.443C392.331 275.855 392.402 276.204 392.544 276.491C392.688 276.775 392.888 276.991 393.144 277.141C393.4 277.287 393.697 277.361 394.035 277.361C394.256 277.361 394.454 277.33 394.632 277.268C394.812 277.205 394.967 277.11 395.097 276.984C395.227 276.857 395.328 276.698 395.399 276.509L396.209 276.736C396.123 277.01 395.98 277.252 395.779 277.46C395.578 277.666 395.329 277.827 395.033 277.943C394.737 278.057 394.405 278.114 394.035 278.114ZM397.569 280.045V272.545H398.378V273.412H398.478C398.539 273.317 398.625 273.196 398.734 273.05C398.845 272.901 399.003 272.768 399.209 272.652C399.418 272.534 399.699 272.474 400.055 272.474C400.514 272.474 400.919 272.589 401.269 272.819C401.619 273.049 401.893 273.374 402.089 273.795C402.286 274.217 402.384 274.714 402.384 275.287C402.384 275.865 402.286 276.365 402.089 276.789C401.893 277.21 401.621 277.537 401.273 277.769C400.925 277.999 400.523 278.114 400.069 278.114C399.718 278.114 399.438 278.056 399.227 277.94C399.016 277.821 398.854 277.687 398.741 277.538C398.627 277.387 398.539 277.261 398.478 277.162H398.407V280.045H397.569ZM398.393 275.273C398.393 275.685 398.453 276.048 398.574 276.363C398.695 276.675 398.871 276.92 399.103 277.098C399.335 277.273 399.619 277.361 399.955 277.361C400.306 277.361 400.598 277.268 400.832 277.084C401.069 276.897 401.247 276.646 401.365 276.331C401.486 276.014 401.546 275.661 401.546 275.273C401.546 274.889 401.487 274.544 401.369 274.236C401.253 273.926 401.076 273.681 400.839 273.501C400.605 273.318 400.31 273.227 399.955 273.227C399.614 273.227 399.328 273.314 399.096 273.487C398.864 273.657 398.689 273.896 398.57 274.204C398.452 274.509 398.393 274.866 398.393 275.273Z" fill="white"/>
<path d="M427.849 274.364C427.849 275.131 427.711 275.794 427.434 276.352C427.157 276.911 426.777 277.342 426.294 277.645C425.811 277.948 425.259 278.099 424.639 278.099C424.019 278.099 423.467 277.948 422.984 277.645C422.501 277.342 422.121 276.911 421.844 276.352C421.567 275.794 421.429 275.131 421.429 274.364C421.429 273.597 421.567 272.934 421.844 272.375C422.121 271.816 422.501 271.385 422.984 271.082C423.467 270.779 424.019 270.628 424.639 270.628C425.259 270.628 425.811 270.779 426.294 271.082C426.777 271.385 427.157 271.816 427.434 272.375C427.711 272.934 427.849 273.597 427.849 274.364ZM426.997 274.364C426.997 273.734 426.891 273.202 426.681 272.769C426.472 272.336 426.19 272.008 425.832 271.786C425.477 271.563 425.079 271.452 424.639 271.452C424.199 271.452 423.8 271.563 423.442 271.786C423.087 272.008 422.804 272.336 422.593 272.769C422.385 273.202 422.281 273.734 422.281 274.364C422.281 274.993 422.385 275.525 422.593 275.958C422.804 276.391 423.087 276.719 423.442 276.942C423.8 277.164 424.199 277.276 424.639 277.276C425.079 277.276 425.477 277.164 425.832 276.942C426.19 276.719 426.472 276.391 426.681 275.958C426.891 275.525 426.997 274.993 426.997 274.364ZM431.432 278.114C430.921 278.114 430.48 277.993 430.111 277.751C429.742 277.51 429.458 277.177 429.259 276.754C429.06 276.33 428.961 275.846 428.961 275.301C428.961 274.747 429.062 274.258 429.266 273.835C429.472 273.408 429.758 273.076 430.125 272.837C430.495 272.595 430.926 272.474 431.418 272.474C431.801 272.474 432.147 272.545 432.455 272.688C432.763 272.83 433.015 273.028 433.211 273.284C433.408 273.54 433.53 273.838 433.577 274.179H432.739C432.675 273.93 432.533 273.71 432.313 273.518C432.095 273.324 431.801 273.227 431.432 273.227C431.105 273.227 430.819 273.312 430.573 273.483C430.329 273.651 430.138 273.889 430.001 274.197C429.866 274.502 429.799 274.861 429.799 275.273C429.799 275.694 429.865 276.061 429.998 276.374C430.132 276.686 430.322 276.929 430.566 277.102C430.812 277.274 431.101 277.361 431.432 277.361C431.65 277.361 431.848 277.323 432.025 277.247C432.203 277.171 432.353 277.062 432.476 276.92C432.599 276.778 432.687 276.608 432.739 276.409H433.577C433.53 276.731 433.413 277.021 433.225 277.279C433.041 277.535 432.796 277.738 432.49 277.89C432.187 278.039 431.835 278.114 431.432 278.114ZM437.174 272.545V273.256H434.348V272.545H437.174ZM435.172 271.239H436.01V276.438C436.01 276.674 436.044 276.852 436.113 276.97C436.184 277.086 436.274 277.164 436.382 277.205C436.494 277.242 436.611 277.261 436.734 277.261C436.826 277.261 436.902 277.257 436.961 277.247C437.02 277.235 437.068 277.226 437.103 277.219L437.274 277.972C437.217 277.993 437.138 278.014 437.036 278.036C436.934 278.059 436.805 278.071 436.649 278.071C436.412 278.071 436.18 278.02 435.953 277.918C435.728 277.817 435.541 277.661 435.392 277.453C435.245 277.245 435.172 276.982 435.172 276.665V271.239Z" fill="white"/>
<path d="M461.964 270.727V278H461.112L457.149 272.29H457.078V278H456.197V270.727H457.049L461.027 276.452H461.098V270.727H461.964ZM465.829 278.114C465.336 278.114 464.904 277.996 464.532 277.762C464.163 277.528 463.874 277.2 463.666 276.778C463.46 276.357 463.357 275.865 463.357 275.301C463.357 274.733 463.46 274.237 463.666 273.813C463.874 273.389 464.163 273.06 464.532 272.826C464.904 272.592 465.336 272.474 465.829 272.474C466.321 272.474 466.752 272.592 467.121 272.826C467.493 273.06 467.782 273.389 467.988 273.813C468.196 274.237 468.3 274.733 468.3 275.301C468.3 275.865 468.196 276.357 467.988 276.778C467.782 277.2 467.493 277.528 467.121 277.762C466.752 277.996 466.321 278.114 465.829 278.114ZM465.829 277.361C466.203 277.361 466.51 277.265 466.752 277.073C466.993 276.881 467.172 276.629 467.288 276.317C467.404 276.004 467.462 275.666 467.462 275.301C467.462 274.937 467.404 274.597 467.288 274.282C467.172 273.967 466.993 273.713 466.752 273.518C466.51 273.324 466.203 273.227 465.829 273.227C465.455 273.227 465.147 273.324 464.905 273.518C464.664 273.713 464.485 273.967 464.369 274.282C464.253 274.597 464.195 274.937 464.195 275.301C464.195 275.666 464.253 276.004 464.369 276.317C464.485 276.629 464.664 276.881 464.905 277.073C465.147 277.265 465.455 277.361 465.829 277.361ZM473.844 272.545L471.827 278H470.975L468.958 272.545H469.867L471.373 276.892H471.43L472.935 272.545H473.844Z" fill="white"/>
<path d="M494.078 278H491.834V270.727H494.178C494.883 270.727 495.487 270.873 495.989 271.164C496.491 271.453 496.875 271.868 497.143 272.411C497.41 272.95 497.544 273.597 497.544 274.349C497.544 275.107 497.409 275.759 497.139 276.306C496.869 276.851 496.476 277.27 495.96 277.563C495.444 277.854 494.817 278 494.078 278ZM492.714 277.219H494.021C494.623 277.219 495.121 277.103 495.516 276.871C495.912 276.639 496.206 276.308 496.401 275.88C496.595 275.451 496.692 274.941 496.692 274.349C496.692 273.762 496.596 273.257 496.404 272.833C496.212 272.407 495.926 272.08 495.545 271.853C495.164 271.623 494.689 271.509 494.121 271.509H492.714V277.219ZM501.195 278.114C500.669 278.114 500.216 277.998 499.835 277.766C499.456 277.531 499.163 277.205 498.957 276.786C498.754 276.364 498.652 275.874 498.652 275.315C498.652 274.757 498.754 274.264 498.957 273.838C499.163 273.41 499.45 273.076 499.817 272.837C500.186 272.595 500.617 272.474 501.109 272.474C501.393 272.474 501.674 272.522 501.951 272.616C502.228 272.711 502.48 272.865 502.707 273.078C502.935 273.289 503.116 273.568 503.251 273.916C503.386 274.264 503.453 274.693 503.453 275.202V275.557H499.249V274.832H502.601C502.601 274.525 502.539 274.25 502.416 274.009C502.295 273.767 502.123 273.576 501.898 273.437C501.675 273.297 501.412 273.227 501.109 273.227C500.776 273.227 500.487 273.31 500.243 273.476C500.001 273.639 499.816 273.852 499.685 274.115C499.555 274.378 499.49 274.66 499.49 274.96V275.443C499.49 275.855 499.561 276.204 499.703 276.491C499.848 276.775 500.048 276.991 500.303 277.141C500.559 277.287 500.856 277.361 501.195 277.361C501.415 277.361 501.614 277.33 501.791 277.268C501.971 277.205 502.126 277.11 502.256 276.984C502.387 276.857 502.487 276.698 502.558 276.509L503.368 276.736C503.283 277.01 503.139 277.252 502.938 277.46C502.737 277.666 502.488 277.827 502.192 277.943C501.897 278.057 501.564 278.114 501.195 278.114ZM506.944 278.114C506.433 278.114 505.992 277.993 505.623 277.751C505.254 277.51 504.969 277.177 504.771 276.754C504.572 276.33 504.472 275.846 504.472 275.301C504.472 274.747 504.574 274.258 504.778 273.835C504.984 273.408 505.27 273.076 505.637 272.837C506.006 272.595 506.437 272.474 506.93 272.474C507.313 272.474 507.659 272.545 507.967 272.688C508.274 272.83 508.527 273.028 508.723 273.284C508.92 273.54 509.041 273.838 509.089 274.179H508.251C508.187 273.93 508.045 273.71 507.825 273.518C507.607 273.324 507.313 273.227 506.944 273.227C506.617 273.227 506.331 273.312 506.085 273.483C505.841 273.651 505.65 273.889 505.513 274.197C505.378 274.502 505.31 274.861 505.31 275.273C505.31 275.694 505.377 276.061 505.509 276.374C505.644 276.686 505.834 276.929 506.077 277.102C506.324 277.274 506.612 277.361 506.944 277.361C507.162 277.361 507.359 277.323 507.537 277.247C507.714 277.171 507.865 277.062 507.988 276.92C508.111 276.778 508.199 276.608 508.251 276.409H509.089C509.041 276.731 508.924 277.021 508.737 277.279C508.553 277.535 508.308 277.738 508.002 277.89C507.699 278.039 507.346 278.114 506.944 278.114Z" fill="white"/>
</svg>
