<svg xmlns="http://www.w3.org/2000/svg" width="25" height="24" viewBox="0 0 25 24" fill="none">
  <path d="M8.0975 17C9.24396 15.625 10.9698 14.75 12.9 14.75C14.8303 14.75 16.5561 15.625 17.7026 17M20.15 12C20.15 16.0041 16.9041 19.25 12.9 19.25C8.89592 19.25 5.64999 16.0041 5.64999 12C5.64999 7.99594 8.89592 4.75 12.9 4.75C16.9041 4.75 20.15 7.99594 20.15 12ZM15.15 10C15.15 11.2426 14.1426 12.25 12.9 12.25C11.6573 12.25 10.65 11.2426 10.65 10C10.65 8.75736 11.6573 7.75 12.9 7.75C14.1426 7.75 15.15 8.75736 15.15 10Z" stroke="#64748B" stroke-width="1.5" stroke-linecap="round" stroke-linejoin="round"/>
</svg>