<svg width="331" height="260" viewBox="0 0 331 260" fill="none" xmlns="http://www.w3.org/2000/svg">
<rect width="331" height="260" rx="2" fill="#484554"/>
<rect width="315" height="240" transform="translate(8 10)" fill="#484554"/>
<path d="M25.7921 12.7273V20H24.9114V13.6506H24.8688L23.0932 14.8295V13.9347L24.9114 12.7273H25.7921ZM28.7182 19.0057L28.6614 19.3892C28.6212 19.6591 28.5596 19.9479 28.4767 20.2557C28.3962 20.5634 28.3122 20.8535 28.2246 21.1257C28.137 21.398 28.0648 21.6146 28.008 21.7756H27.3688C27.3996 21.6241 27.4398 21.424 27.4895 21.1754C27.5392 20.9268 27.589 20.6487 27.6387 20.3409C27.6908 20.0355 27.7334 19.723 27.7665 19.4034L27.8091 19.0057H28.7182ZM32.375 20.0994C31.84 20.0994 31.3842 19.9538 31.0078 19.6626C30.6314 19.3691 30.3438 18.9441 30.1449 18.3878C29.946 17.8291 29.8466 17.1544 29.8466 16.3636C29.8466 15.5777 29.946 14.9065 30.1449 14.3501C30.3461 13.7914 30.6349 13.3653 31.0114 13.0717C31.3902 12.7758 31.8447 12.6278 32.375 12.6278C32.9053 12.6278 33.3587 12.7758 33.7351 13.0717C34.1139 13.3653 34.4027 13.7914 34.6016 14.3501C34.8028 14.9065 34.9034 15.5777 34.9034 16.3636C34.9034 17.1544 34.804 17.8291 34.6051 18.3878C34.4062 18.9441 34.1186 19.3691 33.7422 19.6626C33.3658 19.9538 32.91 20.0994 32.375 20.0994ZM32.375 19.3182C32.9053 19.3182 33.3172 19.0625 33.6108 18.5511C33.9044 18.0398 34.0511 17.3106 34.0511 16.3636C34.0511 15.7339 33.9837 15.1977 33.8487 14.755C33.7161 14.3123 33.5244 13.9749 33.2734 13.7429C33.0249 13.5109 32.7254 13.3949 32.375 13.3949C31.8494 13.3949 31.4387 13.6541 31.1428 14.1726C30.8468 14.6887 30.6989 15.419 30.6989 16.3636C30.6989 16.9934 30.7652 17.5284 30.8977 17.9688C31.0303 18.4091 31.2209 18.7441 31.4695 18.9737C31.7204 19.2034 32.0223 19.3182 32.375 19.3182ZM38.625 20.0994C38.09 20.0994 37.6342 19.9538 37.2578 19.6626C36.8814 19.3691 36.5938 18.9441 36.3949 18.3878C36.196 17.8291 36.0966 17.1544 36.0966 16.3636C36.0966 15.5777 36.196 14.9065 36.3949 14.3501C36.5961 13.7914 36.8849 13.3653 37.2614 13.0717C37.6402 12.7758 38.0947 12.6278 38.625 12.6278C39.1553 12.6278 39.6087 12.7758 39.9851 13.0717C40.3639 13.3653 40.6527 13.7914 40.8516 14.3501C41.0528 14.9065 41.1534 15.5777 41.1534 16.3636C41.1534 17.1544 41.054 17.8291 40.8551 18.3878C40.6562 18.9441 40.3686 19.3691 39.9922 19.6626C39.6158 19.9538 39.16 20.0994 38.625 20.0994ZM38.625 19.3182C39.1553 19.3182 39.5672 19.0625 39.8608 18.5511C40.1544 18.0398 40.3011 17.3106 40.3011 16.3636C40.3011 15.7339 40.2337 15.1977 40.0987 14.755C39.9661 14.3123 39.7744 13.9749 39.5234 13.7429C39.2749 13.5109 38.9754 13.3949 38.625 13.3949C38.0994 13.3949 37.6887 13.6541 37.3928 14.1726C37.0968 14.6887 36.9489 15.419 36.9489 16.3636C36.9489 16.9934 37.0152 17.5284 37.1477 17.9688C37.2803 18.4091 37.4709 18.7441 37.7195 18.9737C37.9704 19.2034 38.2723 19.3182 38.625 19.3182ZM44.875 20.0994C44.34 20.0994 43.8842 19.9538 43.5078 19.6626C43.1314 19.3691 42.8438 18.9441 42.6449 18.3878C42.446 17.8291 42.3466 17.1544 42.3466 16.3636C42.3466 15.5777 42.446 14.9065 42.6449 14.3501C42.8461 13.7914 43.1349 13.3653 43.5114 13.0717C43.8902 12.7758 44.3447 12.6278 44.875 12.6278C45.4053 12.6278 45.8587 12.7758 46.2351 13.0717C46.6139 13.3653 46.9027 13.7914 47.1016 14.3501C47.3028 14.9065 47.4034 15.5777 47.4034 16.3636C47.4034 17.1544 47.304 17.8291 47.1051 18.3878C46.9062 18.9441 46.6186 19.3691 46.2422 19.6626C45.8658 19.9538 45.41 20.0994 44.875 20.0994ZM44.875 19.3182C45.4053 19.3182 45.8172 19.0625 46.1108 18.5511C46.4044 18.0398 46.5511 17.3106 46.5511 16.3636C46.5511 15.7339 46.4837 15.1977 46.3487 14.755C46.2161 14.3123 46.0244 13.9749 45.7734 13.7429C45.5249 13.5109 45.2254 13.3949 44.875 13.3949C44.3494 13.3949 43.9387 13.6541 43.6428 14.1726C43.3468 14.6887 43.1989 15.419 43.1989 16.3636C43.1989 16.9934 43.2652 17.5284 43.3977 17.9688C43.5303 18.4091 43.7209 18.7441 43.9695 18.9737C44.2204 19.2034 44.5223 19.3182 44.875 19.3182Z" fill="#FCF7FF"/>
<path d="M32.4203 57.6994C31.9326 57.6994 31.5017 57.613 31.1277 57.4402C30.756 57.265 30.466 57.0247 30.2576 56.7193C30.0493 56.4115 29.9463 56.0611 29.9487 55.6682C29.9463 55.3604 30.0067 55.0763 30.1298 54.8159C30.2529 54.5531 30.421 54.3341 30.6341 54.1589C30.8495 53.9814 31.0898 53.8689 31.3549 53.8216V53.779C31.0069 53.689 30.7299 53.4937 30.524 53.193C30.318 52.89 30.2162 52.5455 30.2186 52.1596C30.2162 51.7903 30.3097 51.4601 30.4991 51.1689C30.6885 50.8777 30.9489 50.648 31.2804 50.4799C31.6142 50.3119 31.9941 50.2278 32.4203 50.2278C32.8417 50.2278 33.2181 50.3119 33.5495 50.4799C33.881 50.648 34.1414 50.8777 34.3308 51.1689C34.5225 51.4601 34.6196 51.7903 34.622 52.1596C34.6196 52.5455 34.5143 52.89 34.3059 53.193C34.1 53.4937 33.8265 53.689 33.4856 53.779V53.8216C33.7484 53.8689 33.9851 53.9814 34.1958 54.1589C34.4065 54.3341 34.5746 54.5531 34.7001 54.8159C34.8256 55.0763 34.8895 55.3604 34.8919 55.6682C34.8895 56.0611 34.783 56.4115 34.5723 56.7193C34.3639 57.0247 34.0739 57.265 33.7022 57.4402C33.3329 57.613 32.9056 57.6994 32.4203 57.6994ZM32.4203 56.9182C32.7493 56.9182 33.0334 56.8649 33.2725 56.7584C33.5117 56.6518 33.6963 56.5015 33.8265 56.3074C33.9567 56.1132 34.023 55.886 34.0254 55.6255C34.023 55.3509 33.952 55.1083 33.8123 54.8976C33.6726 54.6869 33.4821 54.5211 33.2406 54.4004C33.0015 54.2797 32.728 54.2193 32.4203 54.2193C32.1101 54.2193 31.8332 54.2797 31.5893 54.4004C31.3478 54.5211 31.1573 54.6869 31.0176 54.8976C30.8803 55.1083 30.8128 55.3509 30.8152 55.6255C30.8128 55.886 30.8755 56.1132 31.0034 56.3074C31.1336 56.5015 31.3194 56.6518 31.5609 56.7584C31.8024 56.8649 32.0888 56.9182 32.4203 56.9182ZM32.4203 53.4665C32.6807 53.4665 32.9115 53.4144 33.1127 53.3102C33.3163 53.206 33.4761 53.0604 33.5922 52.8734C33.7082 52.6864 33.7673 52.4674 33.7697 52.2165C33.7673 51.9702 33.7093 51.756 33.5957 51.5737C33.4821 51.389 33.3246 51.247 33.1234 51.1476C32.9222 51.0458 32.6878 50.9949 32.4203 50.9949C32.148 50.9949 31.9101 51.0458 31.7065 51.1476C31.5029 51.247 31.3455 51.389 31.2342 51.5737C31.1229 51.756 31.0685 51.9702 31.0708 52.2165C31.0685 52.4674 31.1241 52.6864 31.2377 52.8734C31.3538 53.0604 31.5136 53.206 31.7172 53.3102C31.9208 53.4144 32.1551 53.4665 32.4203 53.4665ZM38.625 57.6994C38.09 57.6994 37.6342 57.5538 37.2578 57.2626C36.8814 56.9691 36.5938 56.5441 36.3949 55.9878C36.196 55.429 36.0966 54.7543 36.0966 53.9636C36.0966 53.1776 36.196 52.5065 36.3949 51.9501C36.5961 51.3914 36.8849 50.9653 37.2614 50.6717C37.6402 50.3758 38.0947 50.2278 38.625 50.2278C39.1553 50.2278 39.6087 50.3758 39.9851 50.6717C40.3639 50.9653 40.6527 51.3914 40.8516 51.9501C41.0528 52.5065 41.1534 53.1776 41.1534 53.9636C41.1534 54.7543 41.054 55.429 40.8551 55.9878C40.6562 56.5441 40.3686 56.9691 39.9922 57.2626C39.6158 57.5538 39.16 57.6994 38.625 57.6994ZM38.625 56.9182C39.1553 56.9182 39.5672 56.6625 39.8608 56.1511C40.1544 55.6397 40.3011 54.9106 40.3011 53.9636C40.3011 53.3339 40.2337 52.7977 40.0987 52.3549C39.9661 51.9122 39.7744 51.5749 39.5234 51.3429C39.2749 51.1109 38.9754 50.9949 38.625 50.9949C38.0994 50.9949 37.6887 51.2541 37.3928 51.7726C37.0968 52.2887 36.9489 53.019 36.9489 53.9636C36.9489 54.5933 37.0152 55.1284 37.1477 55.5687C37.2803 56.0091 37.4709 56.3441 37.7195 56.5737C37.9704 56.8033 38.2723 56.9182 38.625 56.9182ZM44.875 57.6994C44.34 57.6994 43.8842 57.5538 43.5078 57.2626C43.1314 56.9691 42.8438 56.5441 42.6449 55.9878C42.446 55.429 42.3466 54.7543 42.3466 53.9636C42.3466 53.1776 42.446 52.5065 42.6449 51.9501C42.8461 51.3914 43.1349 50.9653 43.5114 50.6717C43.8902 50.3758 44.3447 50.2278 44.875 50.2278C45.4053 50.2278 45.8587 50.3758 46.2351 50.6717C46.6139 50.9653 46.9027 51.3914 47.1016 51.9501C47.3028 52.5065 47.4034 53.1776 47.4034 53.9636C47.4034 54.7543 47.304 55.429 47.1051 55.9878C46.9062 56.5441 46.6186 56.9691 46.2422 57.2626C45.8658 57.5538 45.41 57.6994 44.875 57.6994ZM44.875 56.9182C45.4053 56.9182 45.8172 56.6625 46.1108 56.1511C46.4044 55.6397 46.5511 54.9106 46.5511 53.9636C46.5511 53.3339 46.4837 52.7977 46.3487 52.3549C46.2161 51.9122 46.0244 51.5749 45.7734 51.3429C45.5249 51.1109 45.2254 50.9949 44.875 50.9949C44.3494 50.9949 43.9387 51.2541 43.6428 51.7726C43.3468 52.2887 43.1989 53.019 43.1989 53.9636C43.1989 54.5933 43.2652 55.1284 43.3977 55.5687C43.5303 56.0091 43.7209 56.3441 43.9695 56.5737C44.2204 56.8033 44.5223 56.9182 44.875 56.9182Z" fill="#FCF7FF"/>
<path d="M32.4274 95.2994C32.1291 95.2946 31.8308 95.2378 31.5325 95.1289C31.2342 95.02 30.9619 94.8366 30.7157 94.5785C30.4695 94.3181 30.2718 93.9665 30.1227 93.5238C29.9735 93.0787 29.899 92.52 29.899 91.8477C29.899 91.2037 29.9593 90.6332 30.0801 90.136C30.2008 89.6365 30.376 89.2163 30.6056 88.8754C30.8353 88.5321 31.1123 88.2717 31.4366 88.0941C31.7633 87.9166 32.1315 87.8278 32.541 87.8278C32.9482 87.8278 33.3104 87.9095 33.6277 88.0728C33.9473 88.2338 34.2077 88.4587 34.4089 88.7475C34.6101 89.0364 34.7404 89.369 34.7995 89.7454H33.9331C33.8526 89.4187 33.6963 89.1476 33.4643 88.9322C33.2323 88.7168 32.9245 88.609 32.541 88.609C31.9776 88.609 31.5337 88.8541 31.2093 89.3441C30.8874 89.8342 30.7252 90.5219 30.7228 91.4073H30.7797C30.9122 91.2061 31.0697 91.0345 31.252 90.8924C31.4366 90.748 31.6402 90.6367 31.8627 90.5586C32.0853 90.4805 32.3208 90.4414 32.5694 90.4414C32.9861 90.4414 33.3672 90.5456 33.7129 90.7539C34.0585 90.9599 34.3355 91.2452 34.5439 91.6098C34.7522 91.972 34.8564 92.3875 34.8564 92.8562C34.8564 93.306 34.7557 93.7179 34.5545 94.092C34.3533 94.4637 34.0704 94.7596 33.7058 94.9798C33.3436 95.1976 32.9174 95.3041 32.4274 95.2994ZM32.4274 94.5181C32.7257 94.5181 32.9932 94.4436 33.2299 94.2944C33.469 94.1453 33.6573 93.9452 33.7946 93.6943C33.9342 93.4433 34.0041 93.164 34.0041 92.8562C34.0041 92.5555 33.9366 92.2821 33.8017 92.0359C33.6691 91.7873 33.4856 91.5896 33.2512 91.4428C33.0192 91.2961 32.7541 91.2227 32.4558 91.2227C32.2309 91.2227 32.0214 91.2677 31.8272 91.3576C31.6331 91.4452 31.4627 91.566 31.3159 91.7198C31.1715 91.8737 31.0578 92.0501 30.975 92.249C30.8921 92.4455 30.8507 92.6526 30.8507 92.8704C30.8507 93.1592 30.9181 93.4291 31.0531 93.6801C31.1904 93.931 31.3774 94.1334 31.6142 94.2873C31.8533 94.4412 32.1243 94.5181 32.4274 94.5181ZM38.625 95.2994C38.09 95.2994 37.6342 95.1538 37.2578 94.8626C36.8814 94.569 36.5938 94.1441 36.3949 93.5877C36.196 93.029 36.0966 92.3543 36.0966 91.5636C36.0966 90.7776 36.196 90.1064 36.3949 89.5501C36.5961 88.9914 36.8849 88.5652 37.2614 88.2717C37.6402 87.9758 38.0947 87.8278 38.625 87.8278C39.1553 87.8278 39.6087 87.9758 39.9851 88.2717C40.3639 88.5652 40.6527 88.9914 40.8516 89.5501C41.0528 90.1064 41.1534 90.7776 41.1534 91.5636C41.1534 92.3543 41.054 93.029 40.8551 93.5877C40.6562 94.1441 40.3686 94.569 39.9922 94.8626C39.6158 95.1538 39.16 95.2994 38.625 95.2994ZM38.625 94.5181C39.1553 94.5181 39.5672 94.2625 39.8608 93.7511C40.1544 93.2397 40.3011 92.5106 40.3011 91.5636C40.3011 90.9339 40.2337 90.3976 40.0987 89.9549C39.9661 89.5122 39.7744 89.1749 39.5234 88.9428C39.2749 88.7108 38.9754 88.5948 38.625 88.5948C38.0994 88.5948 37.6887 88.8541 37.3928 89.3725C37.0968 89.8886 36.9489 90.619 36.9489 91.5636C36.9489 92.1933 37.0152 92.7284 37.1477 93.1687C37.2803 93.609 37.4709 93.944 37.7195 94.1737C37.9704 94.4033 38.2723 94.5181 38.625 94.5181ZM44.875 95.2994C44.34 95.2994 43.8842 95.1538 43.5078 94.8626C43.1314 94.569 42.8438 94.1441 42.6449 93.5877C42.446 93.029 42.3466 92.3543 42.3466 91.5636C42.3466 90.7776 42.446 90.1064 42.6449 89.5501C42.8461 88.9914 43.1349 88.5652 43.5114 88.2717C43.8902 87.9758 44.3447 87.8278 44.875 87.8278C45.4053 87.8278 45.8587 87.9758 46.2351 88.2717C46.6139 88.5652 46.9027 88.9914 47.1016 89.5501C47.3028 90.1064 47.4034 90.7776 47.4034 91.5636C47.4034 92.3543 47.304 93.029 47.1051 93.5877C46.9062 94.1441 46.6186 94.569 46.2422 94.8626C45.8658 95.1538 45.41 95.2994 44.875 95.2994ZM44.875 94.5181C45.4053 94.5181 45.8172 94.2625 46.1108 93.7511C46.4044 93.2397 46.5511 92.5106 46.5511 91.5636C46.5511 90.9339 46.4837 90.3976 46.3487 89.9549C46.2161 89.5122 46.0244 89.1749 45.7734 88.9428C45.5249 88.7108 45.2254 88.5948 44.875 88.5948C44.3494 88.5948 43.9387 88.8541 43.6428 89.3725C43.3468 89.8886 43.1989 90.619 43.1989 91.5636C43.1989 92.1933 43.2652 92.7284 43.3977 93.1687C43.5303 93.609 43.7209 93.944 43.9695 94.1737C44.2204 94.4033 44.5223 94.5181 44.875 94.5181Z" fill="#FCF7FF"/>
<path d="M29.6664 131.309V130.584L32.8624 125.527H33.388V126.649H33.0328L30.6181 130.471V130.527H34.9221V131.309H29.6664ZM33.0897 132.8V131.088V130.751V125.527H33.9277V132.8H33.0897ZM38.625 132.899C38.09 132.899 37.6342 132.754 37.2578 132.463C36.8814 132.169 36.5938 131.744 36.3949 131.188C36.196 130.629 36.0966 129.954 36.0966 129.164C36.0966 128.378 36.196 127.707 36.3949 127.15C36.5961 126.591 36.8849 126.165 37.2614 125.872C37.6402 125.576 38.0947 125.428 38.625 125.428C39.1553 125.428 39.6087 125.576 39.9851 125.872C40.3639 126.165 40.6527 126.591 40.8516 127.15C41.0528 127.707 41.1534 128.378 41.1534 129.164C41.1534 129.954 41.054 130.629 40.8551 131.188C40.6562 131.744 40.3686 132.169 39.9922 132.463C39.6158 132.754 39.16 132.899 38.625 132.899ZM38.625 132.118C39.1553 132.118 39.5672 131.863 39.8608 131.351C40.1544 130.84 40.3011 130.111 40.3011 129.164C40.3011 128.534 40.2337 127.998 40.0987 127.555C39.9661 127.112 39.7744 126.775 39.5234 126.543C39.2749 126.311 38.9754 126.195 38.625 126.195C38.0994 126.195 37.6887 126.454 37.3928 126.973C37.0968 127.489 36.9489 128.219 36.9489 129.164C36.9489 129.793 37.0152 130.328 37.1477 130.769C37.2803 131.209 37.4709 131.544 37.7195 131.774C37.9704 132.003 38.2723 132.118 38.625 132.118ZM44.875 132.899C44.34 132.899 43.8842 132.754 43.5078 132.463C43.1314 132.169 42.8438 131.744 42.6449 131.188C42.446 130.629 42.3466 129.954 42.3466 129.164C42.3466 128.378 42.446 127.707 42.6449 127.15C42.8461 126.591 43.1349 126.165 43.5114 125.872C43.8902 125.576 44.3447 125.428 44.875 125.428C45.4053 125.428 45.8587 125.576 46.2351 125.872C46.6139 126.165 46.9027 126.591 47.1016 127.15C47.3028 127.707 47.4034 128.378 47.4034 129.164C47.4034 129.954 47.304 130.629 47.1051 131.188C46.9062 131.744 46.6186 132.169 46.2422 132.463C45.8658 132.754 45.41 132.899 44.875 132.899ZM44.875 132.118C45.4053 132.118 45.8172 131.863 46.1108 131.351C46.4044 130.84 46.5511 130.111 46.5511 129.164C46.5511 128.534 46.4837 127.998 46.3487 127.555C46.2161 127.112 46.0244 126.775 45.7734 126.543C45.5249 126.311 45.2254 126.195 44.875 126.195C44.3494 126.195 43.9387 126.454 43.6428 126.973C43.3468 127.489 43.1989 128.219 43.1989 129.164C43.1989 129.793 43.2652 130.328 43.3977 130.769C43.5303 131.209 43.7209 131.544 43.9695 131.774C44.2204 132.003 44.5223 132.118 44.875 132.118Z" fill="#FCF7FF"/>
<path d="M30.1982 170.4V169.761L32.5987 167.133C32.8804 166.825 33.1125 166.558 33.2947 166.33C33.477 166.101 33.612 165.885 33.6996 165.684C33.7895 165.481 33.8345 165.267 33.8345 165.045C33.8345 164.789 33.773 164.568 33.6499 164.381C33.5291 164.194 33.3634 164.049 33.1527 163.948C32.942 163.846 32.7053 163.795 32.4425 163.795C32.1631 163.795 31.9193 163.853 31.7109 163.969C31.505 164.083 31.3452 164.242 31.2315 164.448C31.1203 164.654 31.0646 164.896 31.0646 165.173H30.2266C30.2266 164.747 30.3248 164.373 30.5213 164.051C30.7178 163.729 30.9853 163.478 31.3239 163.298C31.6648 163.118 32.0471 163.028 32.4709 163.028C32.897 163.028 33.2746 163.118 33.6037 163.298C33.9328 163.478 34.1908 163.72 34.3778 164.026C34.5649 164.331 34.6584 164.671 34.6584 165.045C34.6584 165.312 34.6098 165.574 34.5128 165.83C34.4181 166.083 34.2524 166.366 34.0156 166.678C33.7812 166.989 33.4557 167.367 33.0391 167.815L31.4055 169.562V169.619H34.7862V170.4H30.1982ZM38.625 170.499C38.09 170.499 37.6342 170.354 37.2578 170.063C36.8814 169.769 36.5938 169.344 36.3949 168.788C36.196 168.229 36.0966 167.554 36.0966 166.764C36.0966 165.978 36.196 165.307 36.3949 164.75C36.5961 164.191 36.8849 163.765 37.2614 163.472C37.6402 163.176 38.0947 163.028 38.625 163.028C39.1553 163.028 39.6087 163.176 39.9851 163.472C40.3639 163.765 40.6527 164.191 40.8516 164.75C41.0528 165.307 41.1534 165.978 41.1534 166.764C41.1534 167.554 41.054 168.229 40.8551 168.788C40.6562 169.344 40.3686 169.769 39.9922 170.063C39.6158 170.354 39.16 170.499 38.625 170.499ZM38.625 169.718C39.1553 169.718 39.5672 169.463 39.8608 168.951C40.1544 168.44 40.3011 167.711 40.3011 166.764C40.3011 166.134 40.2337 165.598 40.0987 165.155C39.9661 164.712 39.7744 164.375 39.5234 164.143C39.2749 163.911 38.9754 163.795 38.625 163.795C38.0994 163.795 37.6887 164.054 37.3928 164.573C37.0968 165.089 36.9489 165.819 36.9489 166.764C36.9489 167.393 37.0152 167.928 37.1477 168.369C37.2803 168.809 37.4709 169.144 37.7195 169.374C37.9704 169.603 38.2723 169.718 38.625 169.718ZM44.875 170.499C44.34 170.499 43.8842 170.354 43.5078 170.063C43.1314 169.769 42.8438 169.344 42.6449 168.788C42.446 168.229 42.3466 167.554 42.3466 166.764C42.3466 165.978 42.446 165.307 42.6449 164.75C42.8461 164.191 43.1349 163.765 43.5114 163.472C43.8902 163.176 44.3447 163.028 44.875 163.028C45.4053 163.028 45.8587 163.176 46.2351 163.472C46.6139 163.765 46.9027 164.191 47.1016 164.75C47.3028 165.307 47.4034 165.978 47.4034 166.764C47.4034 167.554 47.304 168.229 47.1051 168.788C46.9062 169.344 46.6186 169.769 46.2422 170.063C45.8658 170.354 45.41 170.499 44.875 170.499ZM44.875 169.718C45.4053 169.718 45.8172 169.463 46.1108 168.951C46.4044 168.44 46.5511 167.711 46.5511 166.764C46.5511 166.134 46.4837 165.598 46.3487 165.155C46.2161 164.712 46.0244 164.375 45.7734 164.143C45.5249 163.911 45.2254 163.795 44.875 163.795C44.3494 163.795 43.9387 164.054 43.6428 164.573C43.3468 165.089 43.1989 165.819 43.1989 166.764C43.1989 167.393 43.2652 167.928 43.3977 168.369C43.5303 168.809 43.7209 169.144 43.9695 169.374C44.2204 169.603 44.5223 169.718 44.875 169.718Z" fill="#FCF7FF"/>
<path d="M44.875 208.099C44.34 208.099 43.8842 207.954 43.5078 207.663C43.1314 207.369 42.8438 206.944 42.6449 206.388C42.446 205.829 42.3466 205.154 42.3466 204.364C42.3466 203.578 42.446 202.906 42.6449 202.35C42.8461 201.791 43.1349 201.365 43.5114 201.072C43.8902 200.776 44.3447 200.628 44.875 200.628C45.4053 200.628 45.8587 200.776 46.2351 201.072C46.6139 201.365 46.9027 201.791 47.1016 202.35C47.3028 202.906 47.4034 203.578 47.4034 204.364C47.4034 205.154 47.304 205.829 47.1051 206.388C46.9062 206.944 46.6186 207.369 46.2422 207.663C45.8658 207.954 45.41 208.099 44.875 208.099ZM44.875 207.318C45.4053 207.318 45.8172 207.062 46.1108 206.551C46.4044 206.04 46.5511 205.311 46.5511 204.364C46.5511 203.734 46.4837 203.198 46.3487 202.755C46.2161 202.312 46.0244 201.975 45.7734 201.743C45.5249 201.511 45.2254 201.395 44.875 201.395C44.3494 201.395 43.9387 201.654 43.6428 202.173C43.3468 202.689 43.1989 203.419 43.1989 204.364C43.1989 204.993 43.2652 205.528 43.3977 205.969C43.5303 206.409 43.7209 206.744 43.9695 206.974C44.2204 207.203 44.5223 207.318 44.875 207.318Z" fill="#FCF7FF"/>
<line x1="64.5" y1="49.5" x2="322.5" y2="49.5" stroke="#E2E8F0" stroke-linecap="square" stroke-dasharray="1 4"/>
<line x1="64.5" y1="89.5" x2="322.5" y2="89.5" stroke="#E2E8F0" stroke-linecap="square" stroke-dasharray="1 4"/>
<line x1="64.5" y1="129.5" x2="322.5" y2="129.5" stroke="#E2E8F0" stroke-linecap="square" stroke-dasharray="1 4"/>
<line x1="64.5" y1="169.5" x2="322.5" y2="169.5" stroke="#E2E8F0" stroke-linecap="square" stroke-dasharray="1 4"/>
<line x1="64.5" y1="209.5" x2="322.5" y2="209.5" stroke="#E2E8F0" stroke-linecap="square"/>
<line x1="291.125" y1="10.5" x2="291.125" y2="209.5" stroke="#E2E8F0" stroke-linecap="square" stroke-dasharray="1 4"/>
<line x1="258.75" y1="10.5" x2="258.75" y2="209.5" stroke="#E2E8F0" stroke-linecap="square" stroke-dasharray="1 4"/>
<line x1="226.375" y1="10.5" x2="226.375" y2="209.5" stroke="#E2E8F0" stroke-linecap="square" stroke-dasharray="1 4"/>
<line x1="194" y1="10.5" x2="194" y2="209.5" stroke="#E2E8F0" stroke-linecap="square" stroke-dasharray="1 4"/>
<line x1="161.625" y1="10.5" x2="161.625" y2="209.5" stroke="#E2E8F0" stroke-linecap="square" stroke-dasharray="1 4"/>
<line x1="129.25" y1="10.5" x2="129.25" y2="209.5" stroke="#E2E8F0" stroke-linecap="square" stroke-dasharray="1 4"/>
<line x1="96.875" y1="10.5" x2="96.875" y2="209.5" stroke="#E2E8F0" stroke-linecap="square" stroke-dasharray="1 4"/>
<rect x="64" y="76.6666" width="15.8967" height="133.333" rx="1" fill="#8576FF"/>
<rect x="86.1003" y="23.0952" width="15.8967" height="186.905" rx="1" fill="#8576FF"/>
<rect x="108.201" y="55.238" width="15.8967" height="154.762" rx="1" fill="#8576FF"/>
<rect x="130.301" y="123.095" width="15.8967" height="86.9048" rx="1" fill="#8576FF"/>
<rect x="152.401" y="10" width="15.8967" height="200" rx="1" fill="#8576FF"/>
<rect x="174.501" y="95.7142" width="15.8967" height="114.286" rx="1" fill="#8576FF"/>
<rect x="196.602" y="37.381" width="15.8967" height="172.619" rx="1" fill="#8576FF"/>
<rect x="218.702" y="137.381" width="15.8967" height="72.619" rx="1" fill="#8576FF"/>
<rect x="240.802" y="39.762" width="15.8967" height="170.238" rx="1" fill="#8576FF"/>
<rect x="262.903" y="76.6666" width="15.8967" height="133.333" rx="1" fill="#8576FF"/>
<rect x="285.003" y="18.3334" width="15.8967" height="191.667" rx="1" fill="#8576FF"/>
<rect x="307.104" y="88.5714" width="15.8967" height="121.429" rx="1" fill="#8576FF"/>
<path d="M69.2575 228.727H70.1382V233.926C70.1382 234.39 70.053 234.784 69.8825 235.109C69.7121 235.433 69.4718 235.679 69.1617 235.847C68.8515 236.015 68.4858 236.099 68.0644 236.099C67.6666 236.099 67.3127 236.027 67.0026 235.883C66.6924 235.736 66.4486 235.528 66.271 235.258C66.0935 234.988 66.0047 234.667 66.0047 234.295H66.8712C66.8712 234.501 66.9221 234.681 67.0239 234.835C67.128 234.987 67.2701 235.105 67.45 235.19C67.6299 235.276 67.8347 235.318 68.0644 235.318C68.3177 235.318 68.5331 235.265 68.7107 235.158C68.8882 235.052 69.0232 234.896 69.1155 234.69C69.2102 234.481 69.2575 234.227 69.2575 233.926V228.727ZM73.3946 236.128C73.049 236.128 72.7353 236.063 72.4536 235.933C72.1718 235.8 71.9481 235.609 71.7824 235.361C71.6167 235.11 71.5338 234.807 71.5338 234.452C71.5338 234.139 71.5954 233.886 71.7185 233.692C71.8416 233.495 72.0061 233.341 72.2121 233.23C72.4181 233.119 72.6453 233.036 72.8939 232.982C73.1449 232.925 73.397 232.88 73.6503 232.847C73.9817 232.804 74.2504 232.772 74.4564 232.751C74.6647 232.727 74.8163 232.688 74.911 232.634C75.008 232.579 75.0566 232.484 75.0566 232.349V232.321C75.0566 231.971 74.9607 231.698 74.7689 231.504C74.5795 231.31 74.2919 231.213 73.906 231.213C73.5059 231.213 73.1922 231.301 72.9649 231.476C72.7377 231.651 72.5779 231.838 72.4855 232.037L71.6901 231.753C71.8321 231.421 72.0215 231.163 72.2583 230.979C72.4974 230.792 72.7578 230.661 73.0395 230.588C73.3236 230.512 73.603 230.474 73.8776 230.474C74.0528 230.474 74.254 230.496 74.4813 230.538C74.7109 230.579 74.9323 230.663 75.1453 230.79C75.3608 230.918 75.5395 231.111 75.6816 231.369C75.8236 231.627 75.8946 231.973 75.8946 232.406V236H75.0566V235.261H75.0139C74.9571 235.38 74.8624 235.506 74.7298 235.641C74.5973 235.776 74.4209 235.891 74.2007 235.986C73.9806 236.08 73.7119 236.128 73.3946 236.128ZM73.5225 235.375C73.8539 235.375 74.1333 235.31 74.3605 235.18C74.5902 235.049 74.763 234.881 74.879 234.675C74.9974 234.469 75.0566 234.253 75.0566 234.026V233.259C75.021 233.301 74.9429 233.34 74.8222 233.376C74.7038 233.409 74.5665 233.438 74.4102 233.464C74.2564 233.488 74.106 233.509 73.9593 233.528C73.8148 233.545 73.6977 233.559 73.6077 233.571C73.3899 233.599 73.1863 233.646 72.9969 233.71C72.8099 233.771 72.6584 233.865 72.5423 233.99C72.4287 234.113 72.3719 234.281 72.3719 234.494C72.3719 234.786 72.4796 235.006 72.695 235.155C72.9128 235.302 73.1887 235.375 73.5225 235.375Z" fill="#FCF7FF"/>
<path d="M88.2156 236V228.727H92.5764V229.509H89.0963V231.966H92.2497V232.747H89.0963V236H88.2156ZM94.0848 236V228.727H94.9229V231.412H94.9939C95.0554 231.317 95.1407 231.196 95.2496 231.05C95.3608 230.901 95.5194 230.768 95.7254 230.652C95.9337 230.534 96.2155 230.474 96.5706 230.474C97.0299 230.474 97.4347 230.589 97.7851 230.819C98.1354 231.049 98.4089 231.374 98.6054 231.795C98.8019 232.217 98.9001 232.714 98.9001 233.287C98.9001 233.865 98.8019 234.365 98.6054 234.789C98.4089 235.21 98.1366 235.537 97.7886 235.769C97.4406 235.999 97.0393 236.114 96.5848 236.114C96.2344 236.114 95.9539 236.056 95.7432 235.94C95.5325 235.821 95.3703 235.687 95.2567 235.538C95.143 235.387 95.0554 235.261 94.9939 235.162H94.8944V236H94.0848ZM94.9086 233.273C94.9086 233.685 94.969 234.048 95.0898 234.363C95.2105 234.675 95.3869 234.92 95.6189 235.098C95.8509 235.273 96.135 235.361 96.4711 235.361C96.8215 235.361 97.1139 235.268 97.3483 235.084C97.585 234.897 97.7626 234.646 97.8809 234.331C98.0017 234.014 98.0621 233.661 98.0621 233.273C98.0621 232.889 98.0029 232.544 97.8845 232.236C97.7685 231.926 97.5921 231.681 97.3554 231.501C97.121 231.318 96.8263 231.227 96.4711 231.227C96.1302 231.227 95.8438 231.314 95.6118 231.487C95.3798 231.657 95.2046 231.896 95.0862 232.204C94.9678 232.509 94.9086 232.866 94.9086 233.273Z" fill="#FCF7FF"/>
<path d="M110.197 228.727H111.248L113.72 234.764H113.805L116.277 228.727H117.328V236H116.504V230.474H116.433L114.16 236H113.365L111.092 230.474H111.021V236H110.197V228.727ZM118.98 236V230.545H119.79V231.369H119.846C119.946 231.099 120.126 230.88 120.386 230.712C120.647 230.544 120.94 230.46 121.267 230.46C121.328 230.46 121.405 230.461 121.498 230.464C121.59 230.466 121.66 230.47 121.707 230.474V231.327C121.679 231.32 121.614 231.309 121.512 231.295C121.412 231.278 121.307 231.27 121.196 231.27C120.931 231.27 120.694 231.326 120.486 231.437C120.28 231.546 120.116 231.697 119.996 231.891C119.877 232.083 119.818 232.302 119.818 232.548V236H118.98Z" fill="#FCF7FF"/>
<path d="M132.628 236H131.705L134.375 228.727H135.284L137.955 236H137.032L134.858 229.878H134.801L132.628 236ZM132.969 233.159H136.691V233.94H132.969V233.159ZM138.974 238.045V230.545H139.784V231.412H139.883C139.945 231.317 140.03 231.196 140.139 231.05C140.25 230.901 140.409 230.768 140.615 230.652C140.823 230.534 141.105 230.474 141.46 230.474C141.919 230.474 142.324 230.589 142.674 230.819C143.025 231.049 143.298 231.374 143.495 231.795C143.691 232.217 143.789 232.714 143.789 233.287C143.789 233.865 143.691 234.365 143.495 234.789C143.298 235.21 143.026 235.537 142.678 235.769C142.33 235.999 141.929 236.114 141.474 236.114C141.124 236.114 140.843 236.056 140.632 235.94C140.422 235.821 140.26 235.687 140.146 235.538C140.032 235.387 139.945 235.261 139.883 235.162H139.812V238.045H138.974ZM139.798 233.273C139.798 233.685 139.858 234.048 139.979 234.363C140.1 234.675 140.276 234.92 140.508 235.098C140.74 235.273 141.024 235.361 141.36 235.361C141.711 235.361 142.003 235.268 142.238 235.084C142.474 234.897 142.652 234.646 142.77 234.331C142.891 234.014 142.951 233.661 142.951 233.273C142.951 232.889 142.892 232.544 142.774 232.236C142.658 231.926 142.481 231.681 142.245 231.501C142.01 231.318 141.716 231.227 141.36 231.227C141.02 231.227 140.733 231.314 140.501 231.487C140.269 231.657 140.094 231.896 139.975 232.204C139.857 232.509 139.798 232.866 139.798 233.273Z" fill="#FCF7FF"/>
<path d="M156.557 228.727H157.609L160.08 234.764H160.165L162.637 228.727H163.688V236H162.864V230.474H162.793L160.521 236H159.725L157.452 230.474H157.381V236H156.557V228.727ZM159.68 248.128C159.334 248.128 159.02 248.063 158.739 247.933C158.457 247.8 158.233 247.609 158.068 247.361C157.902 247.11 157.819 246.807 157.819 246.452C157.819 246.139 157.881 245.886 158.004 245.692C158.127 245.495 158.291 245.341 158.497 245.23C158.703 245.119 158.93 245.036 159.179 244.982C159.43 244.925 159.682 244.88 159.935 244.847C160.267 244.804 160.536 244.772 160.742 244.751C160.95 244.727 161.101 244.688 161.196 244.634C161.293 244.579 161.342 244.484 161.342 244.349V244.321C161.342 243.971 161.246 243.698 161.054 243.504C160.865 243.31 160.577 243.213 160.191 243.213C159.791 243.213 159.477 243.301 159.25 243.476C159.023 243.651 158.863 243.838 158.771 244.037L157.975 243.753C158.117 243.421 158.307 243.163 158.543 242.979C158.783 242.792 159.043 242.661 159.325 242.588C159.609 242.512 159.888 242.474 160.163 242.474C160.338 242.474 160.539 242.496 160.766 242.538C160.996 242.579 161.217 242.663 161.43 242.79C161.646 242.918 161.825 243.111 161.967 243.369C162.109 243.627 162.18 243.973 162.18 244.406V248H161.342V247.261H161.299C161.242 247.38 161.148 247.506 161.015 247.641C160.882 247.776 160.706 247.891 160.486 247.986C160.266 248.08 159.997 248.128 159.68 248.128ZM159.808 247.375C160.139 247.375 160.418 247.31 160.646 247.18C160.875 247.049 161.048 246.881 161.164 246.675C161.283 246.469 161.342 246.253 161.342 246.026V245.259C161.306 245.301 161.228 245.34 161.107 245.376C160.989 245.409 160.852 245.438 160.695 245.464C160.542 245.488 160.391 245.509 160.244 245.528C160.1 245.545 159.983 245.559 159.893 245.571C159.675 245.599 159.471 245.646 159.282 245.71C159.095 245.771 158.944 245.865 158.828 245.99C158.714 246.113 158.657 246.281 158.657 246.494C158.657 246.786 158.765 247.006 158.98 247.155C159.198 247.302 159.474 247.375 159.808 247.375Z" fill="#FCF7FF"/>
<path d="M180.4 228.727H181.281V233.926C181.281 234.39 181.196 234.784 181.025 235.109C180.855 235.433 180.614 235.679 180.304 235.847C179.994 236.015 179.628 236.099 179.207 236.099C178.809 236.099 178.455 236.027 178.145 235.883C177.835 235.736 177.591 235.528 177.414 235.258C177.236 234.988 177.147 234.667 177.147 234.295H178.014C178.014 234.501 178.065 234.681 178.166 234.835C178.271 234.987 178.413 235.105 178.593 235.19C178.773 235.276 178.977 235.318 179.207 235.318C179.46 235.318 179.676 235.265 179.853 235.158C180.031 235.052 180.166 234.896 180.258 234.69C180.353 234.481 180.4 234.227 180.4 233.926V228.727ZM183.77 232.719V236H182.932V230.545H183.742V231.398H183.813C183.941 231.121 184.135 230.898 184.395 230.73C184.656 230.56 184.992 230.474 185.404 230.474C185.773 230.474 186.096 230.55 186.373 230.702C186.65 230.851 186.866 231.078 187.019 231.384C187.173 231.687 187.25 232.07 187.25 232.534V236H186.412V232.591C186.412 232.162 186.301 231.829 186.078 231.589C185.856 231.348 185.55 231.227 185.162 231.227C184.895 231.227 184.656 231.285 184.445 231.401C184.237 231.517 184.072 231.687 183.951 231.909C183.831 232.132 183.77 232.402 183.77 232.719Z" fill="#FCF7FF"/>
<path d="M204.388 228.727H205.269V233.926C205.269 234.39 205.184 234.784 205.013 235.109C204.843 235.433 204.603 235.679 204.293 235.847C203.982 236.015 203.617 236.099 203.195 236.099C202.797 236.099 202.444 236.027 202.133 235.883C201.823 235.736 201.579 235.528 201.402 235.258C201.224 234.988 201.136 234.667 201.136 234.295H202.002C202.002 234.501 202.053 234.681 202.155 234.835C202.259 234.987 202.401 235.105 202.581 235.19C202.761 235.276 202.966 235.318 203.195 235.318C203.449 235.318 203.664 235.265 203.842 235.158C204.019 235.052 204.154 234.896 204.246 234.69C204.341 234.481 204.388 234.227 204.388 233.926V228.727ZM207.758 228.727V236H206.92V228.727H207.758Z" fill="#FCF7FF"/>
<path d="M221.77 236H220.847L223.517 228.727H224.426L227.097 236H226.173L224 229.878H223.943L221.77 236ZM222.111 233.159H225.832V233.94H222.111V233.159ZM231.553 233.77V230.545H232.391V236H231.553V235.077H231.496C231.369 235.354 231.17 235.589 230.9 235.783C230.63 235.975 230.289 236.071 229.877 236.071C229.536 236.071 229.233 235.996 228.968 235.847C228.703 235.696 228.494 235.469 228.343 235.165C228.191 234.86 228.116 234.475 228.116 234.011V230.545H228.954V233.955C228.954 234.352 229.065 234.67 229.288 234.906C229.512 235.143 229.799 235.261 230.147 235.261C230.355 235.261 230.567 235.208 230.783 235.102C231 234.995 231.183 234.832 231.329 234.612C231.479 234.391 231.553 234.111 231.553 233.77Z" fill="#FCF7FF"/>
<path d="M247.884 230.545C247.842 230.186 247.669 229.906 247.366 229.707C247.063 229.509 246.691 229.409 246.251 229.409C245.929 229.409 245.647 229.461 245.406 229.565C245.167 229.67 244.979 229.813 244.845 229.995C244.712 230.177 244.646 230.384 244.646 230.616C244.646 230.811 244.692 230.978 244.784 231.117C244.879 231.254 245 231.369 245.146 231.462C245.293 231.552 245.447 231.626 245.608 231.685C245.769 231.742 245.917 231.788 246.052 231.824L246.791 232.023C246.98 232.072 247.191 232.141 247.423 232.229C247.657 232.316 247.881 232.436 248.094 232.587C248.309 232.737 248.487 232.928 248.627 233.163C248.766 233.397 248.836 233.685 248.836 234.026C248.836 234.419 248.733 234.774 248.527 235.091C248.323 235.408 248.025 235.66 247.632 235.847C247.242 236.034 246.767 236.128 246.208 236.128C245.687 236.128 245.236 236.044 244.855 235.876C244.476 235.708 244.178 235.473 243.96 235.173C243.745 234.872 243.623 234.523 243.595 234.125H244.504C244.527 234.4 244.62 234.627 244.781 234.807C244.944 234.984 245.15 235.117 245.399 235.205C245.649 235.29 245.919 235.332 246.208 235.332C246.544 235.332 246.846 235.278 247.114 235.169C247.381 235.058 247.593 234.904 247.749 234.707C247.906 234.509 247.984 234.277 247.984 234.011C247.984 233.77 247.916 233.573 247.781 233.422C247.646 233.27 247.469 233.147 247.249 233.053C247.028 232.958 246.791 232.875 246.535 232.804L245.64 232.548C245.072 232.385 244.622 232.152 244.291 231.849C243.959 231.546 243.793 231.149 243.793 230.659C243.793 230.252 243.903 229.897 244.124 229.594C244.346 229.288 244.645 229.052 245.019 228.884C245.395 228.713 245.815 228.628 246.279 228.628C246.748 228.628 247.165 228.712 247.529 228.88C247.894 229.046 248.183 229.273 248.396 229.562C248.611 229.851 248.725 230.179 248.737 230.545H247.884ZM252.457 236.114C251.932 236.114 251.478 235.998 251.097 235.766C250.718 235.531 250.426 235.205 250.22 234.786C250.016 234.364 249.915 233.874 249.915 233.315C249.915 232.757 250.016 232.264 250.22 231.838C250.426 231.41 250.713 231.076 251.079 230.837C251.449 230.595 251.88 230.474 252.372 230.474C252.656 230.474 252.937 230.522 253.214 230.616C253.491 230.711 253.743 230.865 253.97 231.078C254.197 231.289 254.378 231.568 254.513 231.916C254.648 232.264 254.716 232.693 254.716 233.202V233.557H250.511V232.832H253.864C253.864 232.525 253.802 232.25 253.679 232.009C253.558 231.767 253.385 231.576 253.16 231.437C252.938 231.297 252.675 231.227 252.372 231.227C252.038 231.227 251.749 231.31 251.506 231.476C251.264 231.639 251.078 231.852 250.948 232.115C250.818 232.378 250.753 232.66 250.753 232.96V233.443C250.753 233.855 250.824 234.204 250.966 234.491C251.11 234.775 251.31 234.991 251.566 235.141C251.822 235.287 252.119 235.361 252.457 235.361C252.677 235.361 252.876 235.33 253.054 235.268C253.234 235.205 253.389 235.11 253.519 234.984C253.649 234.857 253.75 234.698 253.821 234.509L254.631 234.736C254.545 235.01 254.402 235.252 254.201 235.46C254 235.666 253.751 235.827 253.455 235.943C253.159 236.057 252.827 236.114 252.457 236.114Z" fill="#FCF7FF"/>
<path d="M271.79 232.364C271.79 233.131 271.652 233.794 271.375 234.352C271.098 234.911 270.718 235.342 270.235 235.645C269.752 235.948 269.201 236.099 268.58 236.099C267.96 236.099 267.408 235.948 266.925 235.645C266.442 235.342 266.063 234.911 265.786 234.352C265.509 233.794 265.37 233.131 265.37 232.364C265.37 231.597 265.509 230.934 265.786 230.375C266.063 229.816 266.442 229.385 266.925 229.082C267.408 228.779 267.96 228.628 268.58 228.628C269.201 228.628 269.752 228.779 270.235 229.082C270.718 229.385 271.098 229.816 271.375 230.375C271.652 230.934 271.79 231.597 271.79 232.364ZM270.938 232.364C270.938 231.734 270.833 231.202 270.622 230.769C270.414 230.336 270.131 230.008 269.773 229.786C269.418 229.563 269.021 229.452 268.58 229.452C268.14 229.452 267.741 229.563 267.384 229.786C267.028 230.008 266.746 230.336 266.535 230.769C266.326 231.202 266.222 231.734 266.222 232.364C266.222 232.993 266.326 233.525 266.535 233.958C266.746 234.391 267.028 234.719 267.384 234.942C267.741 235.164 268.14 235.276 268.58 235.276C269.021 235.276 269.418 235.164 269.773 234.942C270.131 234.719 270.414 234.391 270.622 233.958C270.833 233.525 270.938 232.993 270.938 232.364ZM275.374 236.114C274.862 236.114 274.422 235.993 274.053 235.751C273.683 235.51 273.399 235.177 273.2 234.754C273.001 234.33 272.902 233.846 272.902 233.301C272.902 232.747 273.004 232.258 273.207 231.835C273.413 231.408 273.7 231.076 274.067 230.837C274.436 230.595 274.867 230.474 275.359 230.474C275.743 230.474 276.089 230.545 276.396 230.688C276.704 230.83 276.956 231.028 277.153 231.284C277.349 231.54 277.471 231.838 277.518 232.179H276.68C276.616 231.93 276.474 231.71 276.254 231.518C276.036 231.324 275.743 231.227 275.374 231.227C275.047 231.227 274.76 231.312 274.514 231.483C274.27 231.651 274.08 231.889 273.942 232.197C273.808 232.502 273.74 232.861 273.74 233.273C273.74 233.694 273.806 234.061 273.939 234.374C274.074 234.686 274.263 234.929 274.507 235.102C274.753 235.274 275.042 235.361 275.374 235.361C275.591 235.361 275.789 235.323 275.967 235.247C276.144 235.171 276.295 235.062 276.418 234.92C276.541 234.778 276.628 234.608 276.68 234.409H277.518C277.471 234.731 277.354 235.021 277.167 235.279C276.982 235.535 276.737 235.738 276.432 235.89C276.129 236.039 275.776 236.114 275.374 236.114Z" fill="#FCF7FF"/>
<path d="M293.525 228.727V236H292.672L288.709 230.29H288.638V236H287.758V228.727H288.61L292.587 234.452H292.658V228.727H293.525ZM297.389 236.114C296.897 236.114 296.465 235.996 296.093 235.762C295.724 235.528 295.435 235.2 295.227 234.778C295.021 234.357 294.918 233.865 294.918 233.301C294.918 232.733 295.021 232.237 295.227 231.813C295.435 231.389 295.724 231.06 296.093 230.826C296.465 230.592 296.897 230.474 297.389 230.474C297.882 230.474 298.313 230.592 298.682 230.826C299.054 231.06 299.342 231.389 299.548 231.813C299.757 232.237 299.861 232.733 299.861 233.301C299.861 233.865 299.757 234.357 299.548 234.778C299.342 235.2 299.054 235.528 298.682 235.762C298.313 235.996 297.882 236.114 297.389 236.114ZM297.389 235.361C297.763 235.361 298.071 235.265 298.312 235.073C298.554 234.881 298.733 234.629 298.849 234.317C298.965 234.004 299.023 233.666 299.023 233.301C299.023 232.937 298.965 232.597 298.849 232.282C298.733 231.967 298.554 231.713 298.312 231.518C298.071 231.324 297.763 231.227 297.389 231.227C297.015 231.227 296.707 231.324 296.466 231.518C296.224 231.713 296.046 231.967 295.93 232.282C295.814 232.597 295.756 232.937 295.756 233.301C295.756 233.666 295.814 234.004 295.93 234.317C296.046 234.629 296.224 234.881 296.466 235.073C296.707 235.265 297.015 235.361 297.389 235.361Z" fill="#FCF7FF"/>
<path d="M312.496 236H310.252V228.727H312.596C313.301 228.727 313.905 228.873 314.407 229.164C314.908 229.453 315.293 229.868 315.561 230.411C315.828 230.95 315.962 231.597 315.962 232.349C315.962 233.107 315.827 233.759 315.557 234.306C315.287 234.851 314.894 235.27 314.378 235.563C313.862 235.854 313.235 236 312.496 236ZM311.132 235.219H312.439C313.041 235.219 313.539 235.103 313.934 234.871C314.33 234.639 314.624 234.308 314.819 233.88C315.013 233.451 315.11 232.941 315.11 232.349C315.11 231.762 315.014 231.257 314.822 230.833C314.63 230.407 314.344 230.08 313.963 229.853C313.582 229.623 313.107 229.509 312.539 229.509H311.132V235.219ZM319.613 236.114C319.087 236.114 318.634 235.998 318.252 235.766C317.874 235.531 317.581 235.205 317.375 234.786C317.172 234.364 317.07 233.874 317.07 233.315C317.07 232.757 317.172 232.264 317.375 231.838C317.581 231.41 317.868 231.076 318.235 230.837C318.604 230.595 319.035 230.474 319.527 230.474C319.811 230.474 320.092 230.522 320.369 230.616C320.646 230.711 320.898 230.865 321.125 231.078C321.353 231.289 321.534 231.568 321.669 231.916C321.804 232.264 321.871 232.693 321.871 233.202V233.557H317.667V232.832H321.019C321.019 232.525 320.957 232.25 320.834 232.009C320.713 231.767 320.541 231.576 320.316 231.437C320.093 231.297 319.83 231.227 319.527 231.227C319.194 231.227 318.905 231.31 318.661 231.476C318.419 231.639 318.234 231.852 318.103 232.115C317.973 232.378 317.908 232.66 317.908 232.96V233.443C317.908 233.855 317.979 234.204 318.121 234.491C318.266 234.775 318.466 234.991 318.721 235.141C318.977 235.287 319.274 235.361 319.613 235.361C319.833 235.361 320.032 235.33 320.209 235.268C320.389 235.205 320.544 235.11 320.674 234.984C320.805 234.857 320.905 234.698 320.976 234.509L321.786 234.736C321.701 235.01 321.557 235.252 321.356 235.46C321.155 235.666 320.906 235.827 320.61 235.943C320.315 236.057 319.982 236.114 319.613 236.114Z" fill="#FCF7FF"/>
</svg>
