<svg width="331" height="260" viewBox="0 0 331 260" fill="none" xmlns="http://www.w3.org/2000/svg">
<rect x="0.5" y="0.5" width="330" height="259" rx="1.5" fill="white"/>
<rect x="0.5" y="0.5" width="330" height="259" rx="1.5" stroke="#F2F2F7"/>
<path d="M17.7921 12.7273V20H16.9114V13.6506H16.8688L15.0932 14.8295V13.9347L16.9114 12.7273H17.7921ZM20.7182 19.0057L20.6614 19.3892C20.6212 19.6591 20.5596 19.9479 20.4767 20.2557C20.3962 20.5634 20.3122 20.8535 20.2246 21.1257C20.137 21.398 20.0648 21.6146 20.008 21.7756H19.3688C19.3996 21.6241 19.4398 21.424 19.4895 21.1754C19.5392 20.9268 19.589 20.6487 19.6387 20.3409C19.6908 20.0355 19.7334 19.723 19.7665 19.4034L19.8091 19.0057H20.7182ZM24.375 20.0994C23.84 20.0994 23.3842 19.9538 23.0078 19.6626C22.6314 19.3691 22.3438 18.9441 22.1449 18.3878C21.946 17.8291 21.8466 17.1544 21.8466 16.3636C21.8466 15.5777 21.946 14.9065 22.1449 14.3501C22.3461 13.7914 22.6349 13.3653 23.0114 13.0717C23.3902 12.7758 23.8447 12.6278 24.375 12.6278C24.9053 12.6278 25.3587 12.7758 25.7351 13.0717C26.1139 13.3653 26.4027 13.7914 26.6016 14.3501C26.8028 14.9065 26.9034 15.5777 26.9034 16.3636C26.9034 17.1544 26.804 17.8291 26.6051 18.3878C26.4062 18.9441 26.1186 19.3691 25.7422 19.6626C25.3658 19.9538 24.91 20.0994 24.375 20.0994ZM24.375 19.3182C24.9053 19.3182 25.3172 19.0625 25.6108 18.5511C25.9044 18.0398 26.0511 17.3106 26.0511 16.3636C26.0511 15.7339 25.9837 15.1977 25.8487 14.755C25.7161 14.3123 25.5244 13.9749 25.2734 13.7429C25.0249 13.5109 24.7254 13.3949 24.375 13.3949C23.8494 13.3949 23.4387 13.6541 23.1428 14.1726C22.8468 14.6887 22.6989 15.419 22.6989 16.3636C22.6989 16.9934 22.7652 17.5284 22.8977 17.9688C23.0303 18.4091 23.2209 18.7441 23.4695 18.9737C23.7204 19.2034 24.0223 19.3182 24.375 19.3182ZM30.625 20.0994C30.09 20.0994 29.6342 19.9538 29.2578 19.6626C28.8814 19.3691 28.5938 18.9441 28.3949 18.3878C28.196 17.8291 28.0966 17.1544 28.0966 16.3636C28.0966 15.5777 28.196 14.9065 28.3949 14.3501C28.5961 13.7914 28.8849 13.3653 29.2614 13.0717C29.6402 12.7758 30.0947 12.6278 30.625 12.6278C31.1553 12.6278 31.6087 12.7758 31.9851 13.0717C32.3639 13.3653 32.6527 13.7914 32.8516 14.3501C33.0528 14.9065 33.1534 15.5777 33.1534 16.3636C33.1534 17.1544 33.054 17.8291 32.8551 18.3878C32.6562 18.9441 32.3686 19.3691 31.9922 19.6626C31.6158 19.9538 31.16 20.0994 30.625 20.0994ZM30.625 19.3182C31.1553 19.3182 31.5672 19.0625 31.8608 18.5511C32.1544 18.0398 32.3011 17.3106 32.3011 16.3636C32.3011 15.7339 32.2337 15.1977 32.0987 14.755C31.9661 14.3123 31.7744 13.9749 31.5234 13.7429C31.2749 13.5109 30.9754 13.3949 30.625 13.3949C30.0994 13.3949 29.6887 13.6541 29.3928 14.1726C29.0968 14.6887 28.9489 15.419 28.9489 16.3636C28.9489 16.9934 29.0152 17.5284 29.1477 17.9688C29.2803 18.4091 29.4709 18.7441 29.7195 18.9737C29.9704 19.2034 30.2723 19.3182 30.625 19.3182ZM36.875 20.0994C36.34 20.0994 35.8842 19.9538 35.5078 19.6626C35.1314 19.3691 34.8438 18.9441 34.6449 18.3878C34.446 17.8291 34.3466 17.1544 34.3466 16.3636C34.3466 15.5777 34.446 14.9065 34.6449 14.3501C34.8461 13.7914 35.1349 13.3653 35.5114 13.0717C35.8902 12.7758 36.3447 12.6278 36.875 12.6278C37.4053 12.6278 37.8587 12.7758 38.2351 13.0717C38.6139 13.3653 38.9027 13.7914 39.1016 14.3501C39.3028 14.9065 39.4034 15.5777 39.4034 16.3636C39.4034 17.1544 39.304 17.8291 39.1051 18.3878C38.9062 18.9441 38.6186 19.3691 38.2422 19.6626C37.8658 19.9538 37.41 20.0994 36.875 20.0994ZM36.875 19.3182C37.4053 19.3182 37.8172 19.0625 38.1108 18.5511C38.4044 18.0398 38.5511 17.3106 38.5511 16.3636C38.5511 15.7339 38.4837 15.1977 38.3487 14.755C38.2161 14.3123 38.0244 13.9749 37.7734 13.7429C37.5249 13.5109 37.2254 13.3949 36.875 13.3949C36.3494 13.3949 35.9387 13.6541 35.6428 14.1726C35.3468 14.6887 35.1989 15.419 35.1989 16.3636C35.1989 16.9934 35.2652 17.5284 35.3977 17.9688C35.5303 18.4091 35.7209 18.7441 35.9695 18.9737C36.2204 19.2034 36.5223 19.3182 36.875 19.3182Z" fill="#64748B"/>
<path d="M24.4203 60.0994C23.9326 60.0994 23.5017 60.013 23.1277 59.8402C22.756 59.665 22.466 59.4247 22.2576 59.1193C22.0493 58.8116 21.9463 58.4612 21.9487 58.0682C21.9463 57.7604 22.0067 57.4763 22.1298 57.2159C22.2529 56.9531 22.421 56.7341 22.6341 56.5589C22.8495 56.3814 23.0898 56.2689 23.3549 56.2216V56.179C23.0069 56.089 22.7299 55.8937 22.524 55.593C22.318 55.29 22.2162 54.9455 22.2186 54.5597C22.2162 54.1903 22.3097 53.8601 22.4991 53.5689C22.6885 53.2777 22.9489 53.0481 23.2804 52.88C23.6142 52.7119 23.9941 52.6278 24.4203 52.6278C24.8417 52.6278 25.2181 52.7119 25.5495 52.88C25.881 53.0481 26.1414 53.2777 26.3308 53.5689C26.5225 53.8601 26.6196 54.1903 26.622 54.5597C26.6196 54.9455 26.5143 55.29 26.3059 55.593C26.1 55.8937 25.8265 56.089 25.4856 56.179V56.2216C25.7484 56.2689 25.9851 56.3814 26.1958 56.5589C26.4065 56.7341 26.5746 56.9531 26.7001 57.2159C26.8256 57.4763 26.8895 57.7604 26.8919 58.0682C26.8895 58.4612 26.783 58.8116 26.5723 59.1193C26.3639 59.4247 26.0739 59.665 25.7022 59.8402C25.3329 60.013 24.9056 60.0994 24.4203 60.0994ZM24.4203 59.3182C24.7493 59.3182 25.0334 59.2649 25.2725 59.1584C25.5117 59.0518 25.6963 58.9015 25.8265 58.7074C25.9567 58.5133 26.023 58.286 26.0254 58.0256C26.023 57.7509 25.952 57.5083 25.8123 57.2976C25.6726 57.0869 25.4821 56.9212 25.2406 56.8004C25.0015 56.6797 24.728 56.6193 24.4203 56.6193C24.1101 56.6193 23.8332 56.6797 23.5893 56.8004C23.3478 56.9212 23.1573 57.0869 23.0176 57.2976C22.8803 57.5083 22.8128 57.7509 22.8152 58.0256C22.8128 58.286 22.8755 58.5133 23.0034 58.7074C23.1336 58.9015 23.3194 59.0518 23.5609 59.1584C23.8024 59.2649 24.0888 59.3182 24.4203 59.3182ZM24.4203 55.8665C24.6807 55.8665 24.9115 55.8144 25.1127 55.7102C25.3163 55.6061 25.4761 55.4605 25.5922 55.2734C25.7082 55.0864 25.7673 54.8674 25.7697 54.6165C25.7673 54.3703 25.7093 54.156 25.5957 53.9737C25.4821 53.7891 25.3246 53.647 25.1234 53.5476C24.9222 53.4458 24.6878 53.3949 24.4203 53.3949C24.148 53.3949 23.9101 53.4458 23.7065 53.5476C23.5029 53.647 23.3455 53.7891 23.2342 53.9737C23.1229 54.156 23.0685 54.3703 23.0708 54.6165C23.0685 54.8674 23.1241 55.0864 23.2377 55.2734C23.3538 55.4605 23.5136 55.6061 23.7172 55.7102C23.9208 55.8144 24.1551 55.8665 24.4203 55.8665ZM30.625 60.0994C30.09 60.0994 29.6342 59.9538 29.2578 59.6626C28.8814 59.3691 28.5938 58.9441 28.3949 58.3878C28.196 57.8291 28.0966 57.1544 28.0966 56.3636C28.0966 55.5777 28.196 54.9065 28.3949 54.3501C28.5961 53.7914 28.8849 53.3653 29.2614 53.0717C29.6402 52.7758 30.0947 52.6278 30.625 52.6278C31.1553 52.6278 31.6087 52.7758 31.9851 53.0717C32.3639 53.3653 32.6527 53.7914 32.8516 54.3501C33.0528 54.9065 33.1534 55.5777 33.1534 56.3636C33.1534 57.1544 33.054 57.8291 32.8551 58.3878C32.6562 58.9441 32.3686 59.3691 31.9922 59.6626C31.6158 59.9538 31.16 60.0994 30.625 60.0994ZM30.625 59.3182C31.1553 59.3182 31.5672 59.0625 31.8608 58.5511C32.1544 58.0398 32.3011 57.3106 32.3011 56.3636C32.3011 55.7339 32.2337 55.1977 32.0987 54.755C31.9661 54.3123 31.7744 53.9749 31.5234 53.7429C31.2749 53.5109 30.9754 53.3949 30.625 53.3949C30.0994 53.3949 29.6887 53.6541 29.3928 54.1726C29.0968 54.6887 28.9489 55.419 28.9489 56.3636C28.9489 56.9934 29.0152 57.5284 29.1477 57.9688C29.2803 58.4091 29.4709 58.7441 29.7195 58.9737C29.9704 59.2034 30.2723 59.3182 30.625 59.3182ZM36.875 60.0994C36.34 60.0994 35.8842 59.9538 35.5078 59.6626C35.1314 59.3691 34.8438 58.9441 34.6449 58.3878C34.446 57.8291 34.3466 57.1544 34.3466 56.3636C34.3466 55.5777 34.446 54.9065 34.6449 54.3501C34.8461 53.7914 35.1349 53.3653 35.5114 53.0717C35.8902 52.7758 36.3447 52.6278 36.875 52.6278C37.4053 52.6278 37.8587 52.7758 38.2351 53.0717C38.6139 53.3653 38.9027 53.7914 39.1016 54.3501C39.3028 54.9065 39.4034 55.5777 39.4034 56.3636C39.4034 57.1544 39.304 57.8291 39.1051 58.3878C38.9062 58.9441 38.6186 59.3691 38.2422 59.6626C37.8658 59.9538 37.41 60.0994 36.875 60.0994ZM36.875 59.3182C37.4053 59.3182 37.8172 59.0625 38.1108 58.5511C38.4044 58.0398 38.5511 57.3106 38.5511 56.3636C38.5511 55.7339 38.4837 55.1977 38.3487 54.755C38.2161 54.3123 38.0244 53.9749 37.7734 53.7429C37.5249 53.5109 37.2254 53.3949 36.875 53.3949C36.3494 53.3949 35.9387 53.6541 35.6428 54.1726C35.3468 54.6887 35.1989 55.419 35.1989 56.3636C35.1989 56.9934 35.2652 57.5284 35.3977 57.9688C35.5303 58.4091 35.7209 58.7441 35.9695 58.9737C36.2204 59.2034 36.5223 59.3182 36.875 59.3182Z" fill="#64748B"/>
<path d="M24.4274 100.099C24.1291 100.095 23.8308 100.038 23.5325 99.929C23.2342 99.8201 22.9619 99.6366 22.7157 99.3786C22.4695 99.1181 22.2718 98.7666 22.1227 98.3239C21.9735 97.8788 21.899 97.3201 21.899 96.6477C21.899 96.0038 21.9593 95.4332 22.0801 94.9361C22.2008 94.4366 22.376 94.0163 22.6056 93.6754C22.8353 93.3321 23.1123 93.0717 23.4366 92.8942C23.7633 92.7166 24.1315 92.6278 24.541 92.6278C24.9482 92.6278 25.3104 92.7095 25.6277 92.8729C25.9473 93.0339 26.2077 93.2588 26.4089 93.5476C26.6101 93.8364 26.7404 94.169 26.7995 94.5455H25.9331C25.8526 94.2187 25.6963 93.9477 25.4643 93.7322C25.2323 93.5168 24.9245 93.4091 24.541 93.4091C23.9776 93.4091 23.5337 93.6541 23.2093 94.1442C22.8874 94.6342 22.7252 95.322 22.7228 96.2074H22.7797C22.9122 96.0062 23.0697 95.8345 23.252 95.6925C23.4366 95.5481 23.6402 95.4368 23.8627 95.3587C24.0853 95.2805 24.3208 95.2415 24.5694 95.2415C24.9861 95.2415 25.3672 95.3456 25.7129 95.554C26.0585 95.7599 26.3355 96.0452 26.5439 96.4098C26.7522 96.772 26.8564 97.1875 26.8564 97.6562C26.8564 98.1061 26.7557 98.518 26.5545 98.892C26.3533 99.2637 26.0704 99.5597 25.7058 99.7798C25.3436 99.9976 24.9174 100.104 24.4274 100.099ZM24.4274 99.3182C24.7257 99.3182 24.9932 99.2436 25.2299 99.0945C25.469 98.9453 25.6573 98.7453 25.7946 98.4943C25.9342 98.2434 26.0041 97.964 26.0041 97.6562C26.0041 97.3556 25.9366 97.0821 25.8017 96.8359C25.6691 96.5874 25.4856 96.3897 25.2512 96.2429C25.0192 96.0961 24.7541 96.0227 24.4558 96.0227C24.2309 96.0227 24.0214 96.0677 23.8272 96.1577C23.6331 96.2453 23.4627 96.366 23.3159 96.5199C23.1715 96.6738 23.0578 96.8501 22.975 97.049C22.8921 97.2455 22.8507 97.4527 22.8507 97.6705C22.8507 97.9593 22.9181 98.2292 23.0531 98.4801C23.1904 98.7311 23.3774 98.9335 23.6142 99.0874C23.8533 99.2412 24.1243 99.3182 24.4274 99.3182ZM30.625 100.099C30.09 100.099 29.6342 99.9538 29.2578 99.6626C28.8814 99.3691 28.5938 98.9441 28.3949 98.3878C28.196 97.8291 28.0966 97.1544 28.0966 96.3636C28.0966 95.5777 28.196 94.9065 28.3949 94.3501C28.5961 93.7914 28.8849 93.3653 29.2614 93.0717C29.6402 92.7758 30.0947 92.6278 30.625 92.6278C31.1553 92.6278 31.6087 92.7758 31.9851 93.0717C32.3639 93.3653 32.6527 93.7914 32.8516 94.3501C33.0528 94.9065 33.1534 95.5777 33.1534 96.3636C33.1534 97.1544 33.054 97.8291 32.8551 98.3878C32.6562 98.9441 32.3686 99.3691 31.9922 99.6626C31.6158 99.9538 31.16 100.099 30.625 100.099ZM30.625 99.3182C31.1553 99.3182 31.5672 99.0625 31.8608 98.5511C32.1544 98.0398 32.3011 97.3106 32.3011 96.3636C32.3011 95.7339 32.2337 95.1977 32.0987 94.755C31.9661 94.3123 31.7744 93.9749 31.5234 93.7429C31.2749 93.5109 30.9754 93.3949 30.625 93.3949C30.0994 93.3949 29.6887 93.6541 29.3928 94.1726C29.0968 94.6887 28.9489 95.419 28.9489 96.3636C28.9489 96.9934 29.0152 97.5284 29.1477 97.9688C29.2803 98.4091 29.4709 98.7441 29.7195 98.9737C29.9704 99.2034 30.2723 99.3182 30.625 99.3182ZM36.875 100.099C36.34 100.099 35.8842 99.9538 35.5078 99.6626C35.1314 99.3691 34.8438 98.9441 34.6449 98.3878C34.446 97.8291 34.3466 97.1544 34.3466 96.3636C34.3466 95.5777 34.446 94.9065 34.6449 94.3501C34.8461 93.7914 35.1349 93.3653 35.5114 93.0717C35.8902 92.7758 36.3447 92.6278 36.875 92.6278C37.4053 92.6278 37.8587 92.7758 38.2351 93.0717C38.6139 93.3653 38.9027 93.7914 39.1016 94.3501C39.3028 94.9065 39.4034 95.5777 39.4034 96.3636C39.4034 97.1544 39.304 97.8291 39.1051 98.3878C38.9062 98.9441 38.6186 99.3691 38.2422 99.6626C37.8658 99.9538 37.41 100.099 36.875 100.099ZM36.875 99.3182C37.4053 99.3182 37.8172 99.0625 38.1108 98.5511C38.4044 98.0398 38.5511 97.3106 38.5511 96.3636C38.5511 95.7339 38.4837 95.1977 38.3487 94.755C38.2161 94.3123 38.0244 93.9749 37.7734 93.7429C37.5249 93.5109 37.2254 93.3949 36.875 93.3949C36.3494 93.3949 35.9387 93.6541 35.6428 94.1726C35.3468 94.6887 35.1989 95.419 35.1989 96.3636C35.1989 96.9934 35.2652 97.5284 35.3977 97.9688C35.5303 98.4091 35.7209 98.7441 35.9695 98.9737C36.2204 99.2034 36.5223 99.3182 36.875 99.3182Z" fill="#64748B"/>
<path d="M21.6664 138.509V137.784L24.8624 132.727H25.388V133.849H25.0328L22.6181 137.67V137.727H26.9221V138.509H21.6664ZM25.0897 140V138.288V137.951V132.727H25.9277V140H25.0897ZM30.625 140.099C30.09 140.099 29.6342 139.954 29.2578 139.663C28.8814 139.369 28.5938 138.944 28.3949 138.388C28.196 137.829 28.0966 137.154 28.0966 136.364C28.0966 135.578 28.196 134.906 28.3949 134.35C28.5961 133.791 28.8849 133.365 29.2614 133.072C29.6402 132.776 30.0947 132.628 30.625 132.628C31.1553 132.628 31.6087 132.776 31.9851 133.072C32.3639 133.365 32.6527 133.791 32.8516 134.35C33.0528 134.906 33.1534 135.578 33.1534 136.364C33.1534 137.154 33.054 137.829 32.8551 138.388C32.6562 138.944 32.3686 139.369 31.9922 139.663C31.6158 139.954 31.16 140.099 30.625 140.099ZM30.625 139.318C31.1553 139.318 31.5672 139.062 31.8608 138.551C32.1544 138.04 32.3011 137.311 32.3011 136.364C32.3011 135.734 32.2337 135.198 32.0987 134.755C31.9661 134.312 31.7744 133.975 31.5234 133.743C31.2749 133.511 30.9754 133.395 30.625 133.395C30.0994 133.395 29.6887 133.654 29.3928 134.173C29.0968 134.689 28.9489 135.419 28.9489 136.364C28.9489 136.993 29.0152 137.528 29.1477 137.969C29.2803 138.409 29.4709 138.744 29.7195 138.974C29.9704 139.203 30.2723 139.318 30.625 139.318ZM36.875 140.099C36.34 140.099 35.8842 139.954 35.5078 139.663C35.1314 139.369 34.8438 138.944 34.6449 138.388C34.446 137.829 34.3466 137.154 34.3466 136.364C34.3466 135.578 34.446 134.906 34.6449 134.35C34.8461 133.791 35.1349 133.365 35.5114 133.072C35.8902 132.776 36.3447 132.628 36.875 132.628C37.4053 132.628 37.8587 132.776 38.2351 133.072C38.6139 133.365 38.9027 133.791 39.1016 134.35C39.3028 134.906 39.4034 135.578 39.4034 136.364C39.4034 137.154 39.304 137.829 39.1051 138.388C38.9062 138.944 38.6186 139.369 38.2422 139.663C37.8658 139.954 37.41 140.099 36.875 140.099ZM36.875 139.318C37.4053 139.318 37.8172 139.062 38.1108 138.551C38.4044 138.04 38.5511 137.311 38.5511 136.364C38.5511 135.734 38.4837 135.198 38.3487 134.755C38.2161 134.312 38.0244 133.975 37.7734 133.743C37.5249 133.511 37.2254 133.395 36.875 133.395C36.3494 133.395 35.9387 133.654 35.6428 134.173C35.3468 134.689 35.1989 135.419 35.1989 136.364C35.1989 136.993 35.2652 137.528 35.3977 137.969C35.5303 138.409 35.7209 138.744 35.9695 138.974C36.2204 139.203 36.5223 139.318 36.875 139.318Z" fill="#64748B"/>
<path d="M22.1982 180V179.361L24.5987 176.733C24.8804 176.425 25.1125 176.158 25.2947 175.93C25.477 175.701 25.612 175.485 25.6996 175.284C25.7895 175.08 25.8345 174.867 25.8345 174.645C25.8345 174.389 25.773 174.168 25.6499 173.981C25.5291 173.794 25.3634 173.649 25.1527 173.548C24.942 173.446 24.7053 173.395 24.4425 173.395C24.1631 173.395 23.9193 173.453 23.7109 173.569C23.505 173.683 23.3452 173.842 23.2315 174.048C23.1203 174.254 23.0646 174.496 23.0646 174.773H22.2266C22.2266 174.347 22.3248 173.973 22.5213 173.651C22.7178 173.329 22.9853 173.078 23.3239 172.898C23.6648 172.718 24.0471 172.628 24.4709 172.628C24.897 172.628 25.2746 172.718 25.6037 172.898C25.9328 173.078 26.1908 173.32 26.3778 173.626C26.5649 173.931 26.6584 174.271 26.6584 174.645C26.6584 174.912 26.6098 175.174 26.5128 175.43C26.4181 175.683 26.2524 175.966 26.0156 176.278C25.7812 176.589 25.4557 176.967 25.0391 177.415L23.4055 179.162V179.219H26.7862V180H22.1982ZM30.625 180.099C30.09 180.099 29.6342 179.954 29.2578 179.663C28.8814 179.369 28.5938 178.944 28.3949 178.388C28.196 177.829 28.0966 177.154 28.0966 176.364C28.0966 175.578 28.196 174.906 28.3949 174.35C28.5961 173.791 28.8849 173.365 29.2614 173.072C29.6402 172.776 30.0947 172.628 30.625 172.628C31.1553 172.628 31.6087 172.776 31.9851 173.072C32.3639 173.365 32.6527 173.791 32.8516 174.35C33.0528 174.906 33.1534 175.578 33.1534 176.364C33.1534 177.154 33.054 177.829 32.8551 178.388C32.6562 178.944 32.3686 179.369 31.9922 179.663C31.6158 179.954 31.16 180.099 30.625 180.099ZM30.625 179.318C31.1553 179.318 31.5672 179.062 31.8608 178.551C32.1544 178.04 32.3011 177.311 32.3011 176.364C32.3011 175.734 32.2337 175.198 32.0987 174.755C31.9661 174.312 31.7744 173.975 31.5234 173.743C31.2749 173.511 30.9754 173.395 30.625 173.395C30.0994 173.395 29.6887 173.654 29.3928 174.173C29.0968 174.689 28.9489 175.419 28.9489 176.364C28.9489 176.993 29.0152 177.528 29.1477 177.969C29.2803 178.409 29.4709 178.744 29.7195 178.974C29.9704 179.203 30.2723 179.318 30.625 179.318ZM36.875 180.099C36.34 180.099 35.8842 179.954 35.5078 179.663C35.1314 179.369 34.8438 178.944 34.6449 178.388C34.446 177.829 34.3466 177.154 34.3466 176.364C34.3466 175.578 34.446 174.906 34.6449 174.35C34.8461 173.791 35.1349 173.365 35.5114 173.072C35.8902 172.776 36.3447 172.628 36.875 172.628C37.4053 172.628 37.8587 172.776 38.2351 173.072C38.6139 173.365 38.9027 173.791 39.1016 174.35C39.3028 174.906 39.4034 175.578 39.4034 176.364C39.4034 177.154 39.304 177.829 39.1051 178.388C38.9062 178.944 38.6186 179.369 38.2422 179.663C37.8658 179.954 37.41 180.099 36.875 180.099ZM36.875 179.318C37.4053 179.318 37.8172 179.062 38.1108 178.551C38.4044 178.04 38.5511 177.311 38.5511 176.364C38.5511 175.734 38.4837 175.198 38.3487 174.755C38.2161 174.312 38.0244 173.975 37.7734 173.743C37.5249 173.511 37.2254 173.395 36.875 173.395C36.3494 173.395 35.9387 173.654 35.6428 174.173C35.3468 174.689 35.1989 175.419 35.1989 176.364C35.1989 176.993 35.2652 177.528 35.3977 177.969C35.5303 178.409 35.7209 178.744 35.9695 178.974C36.2204 179.203 36.5223 179.318 36.875 179.318Z" fill="#64748B"/>
<path d="M36.875 220.099C36.34 220.099 35.8842 219.954 35.5078 219.663C35.1314 219.369 34.8438 218.944 34.6449 218.388C34.446 217.829 34.3466 217.154 34.3466 216.364C34.3466 215.578 34.446 214.906 34.6449 214.35C34.8461 213.791 35.1349 213.365 35.5114 213.072C35.8902 212.776 36.3447 212.628 36.875 212.628C37.4053 212.628 37.8587 212.776 38.2351 213.072C38.6139 213.365 38.9027 213.791 39.1016 214.35C39.3028 214.906 39.4034 215.578 39.4034 216.364C39.4034 217.154 39.304 217.829 39.1051 218.388C38.9062 218.944 38.6186 219.369 38.2422 219.663C37.8658 219.954 37.41 220.099 36.875 220.099ZM36.875 219.318C37.4053 219.318 37.8172 219.062 38.1108 218.551C38.4044 218.04 38.5511 217.311 38.5511 216.364C38.5511 215.734 38.4837 215.198 38.3487 214.755C38.2161 214.312 38.0244 213.975 37.7734 213.743C37.5249 213.511 37.2254 213.395 36.875 213.395C36.3494 213.395 35.9387 213.654 35.6428 214.173C35.3468 214.689 35.1989 215.419 35.1989 216.364C35.1989 216.993 35.2652 217.528 35.3977 217.969C35.5303 218.409 35.7209 218.744 35.9695 218.974C36.2204 219.203 36.5223 219.318 36.875 219.318Z" fill="#64748B"/>
<line x1="56.5" y1="51.9" x2="322.5" y2="51.9" stroke="#E2E8F0" stroke-linecap="square" stroke-dasharray="1 4"/>
<line x1="56.5" y1="94.3" x2="322.5" y2="94.3" stroke="#E2E8F0" stroke-linecap="square" stroke-dasharray="1 4"/>
<line x1="56.5" y1="136.7" x2="322.5" y2="136.7" stroke="#E2E8F0" stroke-linecap="square" stroke-dasharray="1 4"/>
<line x1="56.5" y1="179.1" x2="322.5" y2="179.1" stroke="#E2E8F0" stroke-linecap="square" stroke-dasharray="1 4"/>
<line x1="56.5" y1="221.5" x2="322.5" y2="221.5" stroke="#E2E8F0" stroke-linecap="square"/>
<line x1="290.125" y1="10.5" x2="290.125" y2="221.5" stroke="#E2E8F0" stroke-linecap="square" stroke-dasharray="1 4"/>
<line x1="256.75" y1="10.5" x2="256.75" y2="221.5" stroke="#E2E8F0" stroke-linecap="square" stroke-dasharray="1 4"/>
<line x1="223.375" y1="10.5" x2="223.375" y2="221.5" stroke="#E2E8F0" stroke-linecap="square" stroke-dasharray="1 4"/>
<line x1="190" y1="10.5" x2="190" y2="221.5" stroke="#E2E8F0" stroke-linecap="square" stroke-dasharray="1 4"/>
<line x1="156.625" y1="10.5" x2="156.625" y2="221.5" stroke="#E2E8F0" stroke-linecap="square" stroke-dasharray="1 4"/>
<line x1="123.25" y1="10.5" x2="123.25" y2="221.5" stroke="#E2E8F0" stroke-linecap="square" stroke-dasharray="1 4"/>
<line x1="89.875" y1="10.5" x2="89.875" y2="221.5" stroke="#E2E8F0" stroke-linecap="square" stroke-dasharray="1 4"/>
<rect x="56" y="80.6666" width="16.3877" height="141.333" rx="1" fill="#8576FF"/>
<rect x="78.7829" y="23.881" width="16.3877" height="198.119" rx="1" fill="#8576FF"/>
<rect x="101.566" y="57.9524" width="16.3877" height="164.048" rx="1" fill="#8576FF"/>
<rect x="124.349" y="129.881" width="16.3877" height="92.119" rx="1" fill="#8576FF"/>
<rect x="147.132" y="10" width="16.3877" height="212" rx="1" fill="#8576FF"/>
<rect x="169.915" y="100.857" width="16.3877" height="121.143" rx="1" fill="#8576FF"/>
<rect x="192.698" y="39.0238" width="16.3877" height="182.976" rx="1" fill="#8576FF"/>
<rect x="215.481" y="145.024" width="16.3877" height="76.9762" rx="1" fill="#8576FF"/>
<rect x="238.263" y="41.5476" width="16.3877" height="180.452" rx="1" fill="#8576FF"/>
<rect x="261.047" y="80.6666" width="16.3877" height="141.333" rx="1" fill="#8576FF"/>
<rect x="283.829" y="18.8334" width="16.3877" height="203.167" rx="1" fill="#8576FF"/>
<rect x="306.612" y="93.2858" width="16.3877" height="128.714" rx="1" fill="#8576FF"/>
<path d="M61.5909 240.727H62.4716V245.926C62.4716 246.39 62.3863 246.784 62.2159 247.109C62.0454 247.433 61.8051 247.679 61.495 247.847C61.1849 248.015 60.8191 248.099 60.3977 248.099C60 248.099 59.646 248.027 59.3359 247.883C59.0258 247.736 58.7819 247.528 58.6044 247.258C58.4268 246.988 58.338 246.667 58.338 246.295H59.2045C59.2045 246.501 59.2554 246.681 59.3572 246.835C59.4614 246.987 59.6034 247.105 59.7834 247.19C59.9633 247.276 60.1681 247.318 60.3977 247.318C60.651 247.318 60.8664 247.265 61.044 247.158C61.2216 247.052 61.3565 246.896 61.4488 246.69C61.5435 246.481 61.5909 246.227 61.5909 245.926V240.727ZM65.728 248.128C65.3823 248.128 65.0686 248.063 64.7869 247.933C64.5052 247.8 64.2815 247.609 64.1157 247.361C63.95 247.11 63.8672 246.807 63.8672 246.452C63.8672 246.139 63.9287 245.886 64.0518 245.692C64.1749 245.495 64.3395 245.341 64.5454 245.23C64.7514 245.119 64.9787 245.036 65.2272 244.982C65.4782 244.925 65.7303 244.88 65.9836 244.847C66.3151 244.804 66.5838 244.772 66.7897 244.751C66.9981 244.727 67.1496 244.688 67.2443 244.634C67.3414 244.579 67.3899 244.484 67.3899 244.349V244.321C67.3899 243.971 67.294 243.698 67.1022 243.504C66.9128 243.31 66.6252 243.213 66.2393 243.213C65.8392 243.213 65.5255 243.301 65.2983 243.476C65.071 243.651 64.9112 243.838 64.8189 244.037L64.0234 243.753C64.1655 243.421 64.3548 243.163 64.5916 242.979C64.8307 242.792 65.0911 242.661 65.3728 242.588C65.6569 242.512 65.9363 242.474 66.2109 242.474C66.3861 242.474 66.5873 242.496 66.8146 242.538C67.0442 242.579 67.2656 242.663 67.4787 242.79C67.6941 242.918 67.8728 243.111 68.0149 243.369C68.1569 243.627 68.228 243.973 68.228 244.406V248H67.3899V247.261H67.3473C67.2905 247.38 67.1958 247.506 67.0632 247.641C66.9306 247.776 66.7542 247.891 66.5341 247.986C66.3139 248.08 66.0452 248.128 65.728 248.128ZM65.8558 247.375C66.1872 247.375 66.4666 247.31 66.6939 247.18C66.9235 247.049 67.0963 246.881 67.2123 246.675C67.3307 246.469 67.3899 246.253 67.3899 246.026V245.259C67.3544 245.301 67.2762 245.34 67.1555 245.376C67.0371 245.409 66.8998 245.438 66.7436 245.464C66.5897 245.488 66.4394 245.509 66.2926 245.528C66.1482 245.545 66.031 245.559 65.941 245.571C65.7232 245.599 65.5196 245.646 65.3302 245.71C65.1432 245.771 64.9917 245.865 64.8757 245.99C64.762 246.113 64.7052 246.281 64.7052 246.494C64.7052 246.786 64.8129 247.006 65.0284 247.155C65.2462 247.302 65.522 247.375 65.8558 247.375Z" fill="#64748B"/>
<path d="M81.2157 248V240.727H85.5765V241.509H82.0963V243.966H85.2498V244.747H82.0963V248H81.2157ZM87.0848 248V240.727H87.9229V243.412H87.9939C88.0554 243.317 88.1407 243.196 88.2496 243.05C88.3608 242.901 88.5195 242.768 88.7254 242.652C88.9338 242.534 89.2155 242.474 89.5706 242.474C90.0299 242.474 90.4347 242.589 90.7851 242.819C91.1355 243.049 91.4089 243.374 91.6054 243.795C91.8019 244.217 91.9001 244.714 91.9001 245.287C91.9001 245.865 91.8019 246.365 91.6054 246.789C91.4089 247.21 91.1367 247.537 90.7886 247.769C90.4406 247.999 90.0393 248.114 89.5848 248.114C89.2344 248.114 88.9539 248.056 88.7432 247.94C88.5325 247.821 88.3703 247.687 88.2567 247.538C88.143 247.387 88.0554 247.261 87.9939 247.162H87.8945V248H87.0848ZM87.9087 245.273C87.9087 245.685 87.969 246.048 88.0898 246.363C88.2105 246.675 88.3869 246.92 88.6189 247.098C88.8509 247.273 89.135 247.361 89.4712 247.361C89.8215 247.361 90.1139 247.268 90.3483 247.084C90.585 246.897 90.7626 246.646 90.881 246.331C91.0017 246.014 91.0621 245.661 91.0621 245.273C91.0621 244.889 91.0029 244.544 90.8845 244.236C90.7685 243.926 90.5921 243.681 90.3554 243.501C90.121 243.318 89.8263 243.227 89.4712 243.227C89.1303 243.227 88.8438 243.314 88.6118 243.487C88.3798 243.657 88.2046 243.896 88.0862 244.204C87.9679 244.509 87.9087 244.866 87.9087 245.273Z" fill="#64748B"/>
<path d="M103.864 240.727H104.915L107.386 246.764H107.472L109.943 240.727H110.994V248H110.171V242.474H110.1L107.827 248H107.031L104.759 242.474H104.688V248H103.864V240.727ZM112.647 248V242.545H113.456V243.369H113.513C113.613 243.099 113.792 242.88 114.053 242.712C114.313 242.544 114.607 242.46 114.934 242.46C114.995 242.46 115.072 242.461 115.164 242.464C115.257 242.466 115.327 242.47 115.374 242.474V243.327C115.345 243.32 115.28 243.309 115.179 243.295C115.079 243.278 114.974 243.27 114.863 243.27C114.597 243.27 114.361 243.326 114.152 243.437C113.946 243.546 113.783 243.697 113.662 243.891C113.544 244.083 113.485 244.302 113.485 244.548V248H112.647Z" fill="#64748B"/>
<path d="M126.962 248H126.038L128.709 240.727H129.618L132.288 248H131.365L129.192 241.878H129.135L126.962 248ZM127.302 245.159H131.024V245.94H127.302V245.159ZM133.307 250.045V242.545H134.117V243.412H134.217C134.278 243.317 134.363 243.196 134.472 243.05C134.583 242.901 134.742 242.768 134.948 242.652C135.156 242.534 135.438 242.474 135.793 242.474C136.252 242.474 136.657 242.589 137.008 242.819C137.358 243.049 137.632 243.374 137.828 243.795C138.025 244.217 138.123 244.714 138.123 245.287C138.123 245.865 138.025 246.365 137.828 246.789C137.632 247.21 137.359 247.537 137.011 247.769C136.663 247.999 136.262 248.114 135.807 248.114C135.457 248.114 135.176 248.056 134.966 247.94C134.755 247.821 134.593 247.687 134.479 247.538C134.366 247.387 134.278 247.261 134.217 247.162H134.145V250.045H133.307ZM134.131 245.273C134.131 245.685 134.192 246.048 134.312 246.363C134.433 246.675 134.609 246.92 134.842 247.098C135.074 247.273 135.358 247.361 135.694 247.361C136.044 247.361 136.337 247.268 136.571 247.084C136.808 246.897 136.985 246.646 137.104 246.331C137.224 246.014 137.285 245.661 137.285 245.273C137.285 244.889 137.225 244.544 137.107 244.236C136.991 243.926 136.815 243.681 136.578 243.501C136.344 243.318 136.049 243.227 135.694 243.227C135.353 243.227 135.066 243.314 134.834 243.487C134.602 243.657 134.427 243.896 134.309 244.204C134.19 244.509 134.131 244.866 134.131 245.273Z" fill="#64748B"/>
<path d="M148.74 240.727H149.791L152.263 246.764H152.348L154.82 240.727H155.871V248H155.047V242.474H154.976L152.703 248H151.908L149.635 242.474H149.564V248H148.74V240.727ZM159.128 248.128C158.782 248.128 158.469 248.063 158.187 247.933C157.905 247.8 157.682 247.609 157.516 247.361C157.35 247.11 157.267 246.807 157.267 246.452C157.267 246.139 157.329 245.886 157.452 245.692C157.575 245.495 157.74 245.341 157.945 245.23C158.151 245.119 158.379 245.036 158.627 244.982C158.878 244.925 159.13 244.88 159.384 244.847C159.715 244.804 159.984 244.772 160.19 244.751C160.398 244.727 160.55 244.688 160.644 244.634C160.741 244.579 160.79 244.484 160.79 244.349V244.321C160.79 243.971 160.694 243.698 160.502 243.504C160.313 243.31 160.025 243.213 159.639 243.213C159.239 243.213 158.926 243.301 158.698 243.476C158.471 243.651 158.311 243.838 158.219 244.037L157.423 243.753C157.566 243.421 157.755 243.163 157.992 242.979C158.231 242.792 158.491 242.661 158.773 242.588C159.057 242.512 159.336 242.474 159.611 242.474C159.786 242.474 159.987 242.496 160.215 242.538C160.444 242.579 160.666 242.663 160.879 242.79C161.094 242.918 161.273 243.111 161.415 243.369C161.557 243.627 161.628 243.973 161.628 244.406V248H160.79V247.261H160.747C160.691 247.38 160.596 247.506 160.463 247.641C160.331 247.776 160.154 247.891 159.934 247.986C159.714 248.08 159.445 248.128 159.128 248.128ZM159.256 247.375C159.587 247.375 159.867 247.31 160.094 247.18C160.324 247.049 160.496 246.881 160.612 246.675C160.731 246.469 160.79 246.253 160.79 246.026V245.259C160.754 245.301 160.676 245.34 160.556 245.376C160.437 245.409 160.3 245.438 160.144 245.464C159.99 245.488 159.839 245.509 159.693 245.528C159.548 245.545 159.431 245.559 159.341 245.571C159.123 245.599 158.92 245.646 158.73 245.71C158.543 245.771 158.392 245.865 158.276 245.99C158.162 246.113 158.105 246.281 158.105 246.494C158.105 246.786 158.213 247.006 158.428 247.155C158.646 247.302 158.922 247.375 159.256 247.375Z" fill="#64748B"/>
<path d="M176.067 240.727H176.947V245.926C176.947 246.39 176.862 246.784 176.692 247.109C176.521 247.433 176.281 247.679 175.971 247.847C175.661 248.015 175.295 248.099 174.874 248.099C174.476 248.099 174.122 248.027 173.812 247.883C173.502 247.736 173.258 247.528 173.08 247.258C172.903 246.988 172.814 246.667 172.814 246.295H173.68C173.68 246.501 173.731 246.681 173.833 246.835C173.937 246.987 174.079 247.105 174.259 247.19C174.439 247.276 174.644 247.318 174.874 247.318C175.127 247.318 175.342 247.265 175.52 247.158C175.697 247.052 175.832 246.896 175.925 246.69C176.019 246.481 176.067 246.227 176.067 245.926V240.727ZM179.437 244.719V248H178.599V242.545H179.408V243.398H179.479C179.607 243.121 179.801 242.898 180.062 242.73C180.322 242.56 180.658 242.474 181.07 242.474C181.44 242.474 181.763 242.55 182.04 242.702C182.317 242.851 182.532 243.078 182.686 243.384C182.84 243.687 182.917 244.07 182.917 244.534V248H182.079V244.591C182.079 244.162 181.968 243.829 181.745 243.589C181.522 243.348 181.217 243.227 180.829 243.227C180.561 243.227 180.322 243.285 180.112 243.401C179.903 243.517 179.739 243.687 179.618 243.909C179.497 244.132 179.437 244.402 179.437 244.719Z" fill="#64748B"/>
<path d="M200.722 240.727H201.602V245.926C201.602 246.39 201.517 246.784 201.347 247.109C201.176 247.433 200.936 247.679 200.626 247.847C200.316 248.015 199.95 248.099 199.529 248.099C199.131 248.099 198.777 248.027 198.467 247.883C198.157 247.736 197.913 247.528 197.735 247.258C197.558 246.988 197.469 246.667 197.469 246.295H198.335C198.335 246.501 198.386 246.681 198.488 246.835C198.592 246.987 198.734 247.105 198.914 247.19C199.094 247.276 199.299 247.318 199.529 247.318C199.782 247.318 199.997 247.265 200.175 247.158C200.352 247.052 200.487 246.896 200.58 246.69C200.674 246.481 200.722 246.227 200.722 245.926V240.727ZM204.092 240.727V248H203.254V240.727H204.092Z" fill="#64748B"/>
<path d="M218.77 248H217.846L220.517 240.727H221.426L224.096 248H223.173L221 241.878H220.943L218.77 248ZM219.111 245.159H222.832V245.94H219.111V245.159ZM228.553 245.77V242.545H229.391V248H228.553V247.077H228.496C228.368 247.354 228.17 247.589 227.9 247.783C227.63 247.975 227.289 248.071 226.877 248.071C226.536 248.071 226.233 247.996 225.968 247.847C225.703 247.696 225.494 247.469 225.343 247.165C225.191 246.86 225.116 246.475 225.116 246.011V242.545H225.954V245.955C225.954 246.352 226.065 246.67 226.288 246.906C226.512 247.143 226.799 247.261 227.147 247.261C227.355 247.261 227.567 247.208 227.783 247.102C228 246.995 228.183 246.832 228.329 246.612C228.479 246.391 228.553 246.111 228.553 245.77Z" fill="#64748B"/>
<path d="M245.551 242.545C245.508 242.186 245.336 241.906 245.032 241.707C244.729 241.509 244.358 241.409 243.917 241.409C243.595 241.409 243.314 241.461 243.072 241.565C242.833 241.67 242.646 241.813 242.511 241.995C242.379 242.177 242.312 242.384 242.312 242.616C242.312 242.811 242.358 242.978 242.451 243.117C242.546 243.254 242.666 243.369 242.813 243.462C242.96 243.552 243.114 243.626 243.275 243.685C243.436 243.742 243.584 243.788 243.719 243.824L244.457 244.023C244.647 244.072 244.857 244.141 245.089 244.229C245.324 244.316 245.547 244.436 245.76 244.587C245.976 244.737 246.153 244.928 246.293 245.163C246.433 245.397 246.503 245.685 246.503 246.026C246.503 246.419 246.4 246.774 246.194 247.091C245.99 247.408 245.692 247.66 245.299 247.847C244.908 248.034 244.434 248.128 243.875 248.128C243.354 248.128 242.903 248.044 242.522 247.876C242.143 247.708 241.845 247.473 241.627 247.173C241.412 246.872 241.29 246.523 241.261 246.125H242.17C242.194 246.4 242.286 246.627 242.447 246.807C242.611 246.984 242.817 247.117 243.065 247.205C243.316 247.29 243.586 247.332 243.875 247.332C244.211 247.332 244.513 247.278 244.78 247.169C245.048 247.058 245.26 246.904 245.416 246.707C245.572 246.509 245.65 246.277 245.65 246.011C245.65 245.77 245.583 245.573 245.448 245.422C245.313 245.27 245.135 245.147 244.915 245.053C244.695 244.958 244.457 244.875 244.202 244.804L243.307 244.548C242.738 244.385 242.289 244.152 241.957 243.849C241.626 243.546 241.46 243.149 241.46 242.659C241.46 242.252 241.57 241.897 241.79 241.594C242.013 241.288 242.311 241.052 242.685 240.884C243.062 240.713 243.482 240.628 243.946 240.628C244.415 240.628 244.831 240.712 245.196 240.88C245.56 241.046 245.849 241.273 246.062 241.562C246.278 241.851 246.391 242.179 246.403 242.545H245.551ZM250.124 248.114C249.598 248.114 249.145 247.998 248.764 247.766C248.385 247.531 248.093 247.205 247.887 246.786C247.683 246.364 247.581 245.874 247.581 245.315C247.581 244.757 247.683 244.264 247.887 243.838C248.093 243.41 248.379 243.076 248.746 242.837C249.115 242.595 249.546 242.474 250.039 242.474C250.323 242.474 250.603 242.522 250.88 242.616C251.157 242.711 251.409 242.865 251.637 243.078C251.864 243.289 252.045 243.568 252.18 243.916C252.315 244.264 252.382 244.693 252.382 245.202V245.557H248.178V244.832H251.53C251.53 244.525 251.469 244.25 251.346 244.009C251.225 243.767 251.052 243.576 250.827 243.437C250.605 243.297 250.342 243.227 250.039 243.227C249.705 243.227 249.416 243.31 249.172 243.476C248.931 243.639 248.745 243.852 248.615 244.115C248.484 244.378 248.419 244.66 248.419 244.96V245.443C248.419 245.855 248.49 246.204 248.632 246.491C248.777 246.775 248.977 246.991 249.233 247.141C249.488 247.287 249.785 247.361 250.124 247.361C250.344 247.361 250.543 247.33 250.721 247.268C250.9 247.205 251.056 247.11 251.186 246.984C251.316 246.857 251.417 246.698 251.488 246.509L252.297 246.736C252.212 247.01 252.069 247.252 251.868 247.46C251.666 247.666 251.418 247.827 251.122 247.943C250.826 248.057 250.493 248.114 250.124 248.114Z" fill="#64748B"/>
<path d="M270.124 244.364C270.124 245.131 269.985 245.794 269.708 246.352C269.431 246.911 269.051 247.342 268.568 247.645C268.085 247.948 267.534 248.099 266.914 248.099C266.293 248.099 265.742 247.948 265.259 247.645C264.776 247.342 264.396 246.911 264.119 246.352C263.842 245.794 263.703 245.131 263.703 244.364C263.703 243.597 263.842 242.934 264.119 242.375C264.396 241.816 264.776 241.385 265.259 241.082C265.742 240.779 266.293 240.628 266.914 240.628C267.534 240.628 268.085 240.779 268.568 241.082C269.051 241.385 269.431 241.816 269.708 242.375C269.985 242.934 270.124 243.597 270.124 244.364ZM269.272 244.364C269.272 243.734 269.166 243.202 268.955 242.769C268.747 242.336 268.464 242.008 268.107 241.786C267.752 241.563 267.354 241.452 266.914 241.452C266.473 241.452 266.074 241.563 265.717 241.786C265.362 242.008 265.079 242.336 264.868 242.769C264.66 243.202 264.556 243.734 264.556 244.364C264.556 244.993 264.66 245.525 264.868 245.958C265.079 246.391 265.362 246.719 265.717 246.942C266.074 247.164 266.473 247.276 266.914 247.276C267.354 247.276 267.752 247.164 268.107 246.942C268.464 246.719 268.747 246.391 268.955 245.958C269.166 245.525 269.272 244.993 269.272 244.364ZM273.707 248.114C273.196 248.114 272.755 247.993 272.386 247.751C272.017 247.51 271.732 247.177 271.534 246.754C271.335 246.33 271.235 245.846 271.235 245.301C271.235 244.747 271.337 244.258 271.541 243.835C271.747 243.408 272.033 243.076 272.4 242.837C272.769 242.595 273.2 242.474 273.693 242.474C274.076 242.474 274.422 242.545 274.73 242.688C275.037 242.83 275.29 243.028 275.486 243.284C275.682 243.54 275.804 243.838 275.852 244.179H275.014C274.95 243.93 274.808 243.71 274.588 243.518C274.37 243.324 274.076 243.227 273.707 243.227C273.38 243.227 273.094 243.312 272.848 243.483C272.604 243.651 272.413 243.889 272.276 244.197C272.141 244.502 272.073 244.861 272.073 245.273C272.073 245.694 272.14 246.061 272.272 246.374C272.407 246.686 272.597 246.929 272.84 247.102C273.087 247.274 273.375 247.361 273.707 247.361C273.925 247.361 274.122 247.323 274.3 247.247C274.477 247.171 274.628 247.062 274.751 246.92C274.874 246.778 274.962 246.608 275.014 246.409H275.852C275.804 246.731 275.687 247.021 275.5 247.279C275.316 247.535 275.071 247.738 274.765 247.89C274.462 248.039 274.109 248.114 273.707 248.114Z" fill="#64748B"/>
<path d="M292.525 240.727V248H291.672L287.709 242.29H287.638V248H286.758V240.727H287.61L291.587 246.452H291.658V240.727H292.525ZM296.389 248.114C295.897 248.114 295.465 247.996 295.093 247.762C294.724 247.528 294.435 247.2 294.227 246.778C294.021 246.357 293.918 245.865 293.918 245.301C293.918 244.733 294.021 244.237 294.227 243.813C294.435 243.389 294.724 243.06 295.093 242.826C295.465 242.592 295.897 242.474 296.389 242.474C296.882 242.474 297.312 242.592 297.682 242.826C298.053 243.06 298.342 243.389 298.548 243.813C298.757 244.237 298.861 244.733 298.861 245.301C298.861 245.865 298.757 246.357 298.548 246.778C298.342 247.2 298.053 247.528 297.682 247.762C297.312 247.996 296.882 248.114 296.389 248.114ZM296.389 247.361C296.763 247.361 297.071 247.265 297.312 247.073C297.554 246.881 297.733 246.629 297.849 246.317C297.965 246.004 298.023 245.666 298.023 245.301C298.023 244.937 297.965 244.597 297.849 244.282C297.733 243.967 297.554 243.713 297.312 243.518C297.071 243.324 296.763 243.227 296.389 243.227C296.015 243.227 295.707 243.324 295.466 243.518C295.224 243.713 295.046 243.967 294.93 244.282C294.814 244.597 294.756 244.937 294.756 245.301C294.756 245.666 294.814 246.004 294.93 246.317C295.046 246.629 295.224 246.881 295.466 247.073C295.707 247.265 296.015 247.361 296.389 247.361Z" fill="#64748B"/>
<path d="M312.163 248H309.918V240.727H312.262C312.968 240.727 313.571 240.873 314.073 241.164C314.575 241.453 314.96 241.868 315.227 242.411C315.495 242.95 315.629 243.597 315.629 244.349C315.629 245.107 315.494 245.759 315.224 246.306C314.954 246.851 314.561 247.27 314.045 247.563C313.529 247.854 312.901 248 312.163 248ZM310.799 247.219H312.106C312.707 247.219 313.206 247.103 313.601 246.871C313.996 246.639 314.291 246.308 314.485 245.88C314.679 245.451 314.776 244.941 314.776 244.349C314.776 243.762 314.68 243.257 314.489 242.833C314.297 242.407 314.01 242.08 313.629 241.853C313.248 241.623 312.774 241.509 312.205 241.509H310.799V247.219ZM319.279 248.114C318.754 248.114 318.3 247.998 317.919 247.766C317.54 247.531 317.248 247.205 317.042 246.786C316.838 246.364 316.737 245.874 316.737 245.315C316.737 244.757 316.838 244.264 317.042 243.838C317.248 243.41 317.534 243.076 317.901 242.837C318.271 242.595 318.702 242.474 319.194 242.474C319.478 242.474 319.759 242.522 320.036 242.616C320.313 242.711 320.565 242.865 320.792 243.078C321.019 243.289 321.2 243.568 321.335 243.916C321.47 244.264 321.538 244.693 321.538 245.202V245.557H317.333V244.832H320.685C320.685 244.525 320.624 244.25 320.501 244.009C320.38 243.767 320.207 243.576 319.982 243.437C319.76 243.297 319.497 243.227 319.194 243.227C318.86 243.227 318.571 243.31 318.327 243.476C318.086 243.639 317.9 243.852 317.77 244.115C317.64 244.378 317.575 244.66 317.575 244.96V245.443C317.575 245.855 317.646 246.204 317.788 246.491C317.932 246.775 318.132 246.991 318.388 247.141C318.644 247.287 318.941 247.361 319.279 247.361C319.499 247.361 319.698 247.33 319.876 247.268C320.056 247.205 320.211 247.11 320.341 246.984C320.471 246.857 320.572 246.698 320.643 246.509L321.452 246.736C321.367 247.01 321.224 247.252 321.023 247.46C320.822 247.666 320.573 247.827 320.277 247.943C319.981 248.057 319.649 248.114 319.279 248.114Z" fill="#64748B"/>
</svg>
