<svg xmlns="http://www.w3.org/2000/svg" width="20" height="20" viewBox="0 0 20 20" fill="none">
  <path d="M4.68432 12.4689L5.60165 12.6126C6.27883 12.7186 6.76243 13.3388 6.71256 14.0376L6.64498 14.9847C6.62529 15.2606 6.77228 15.5203 7.01572 15.6405L7.6942 15.9748C7.93765 16.0949 8.22833 16.05 8.42715 15.8627L9.10892 15.2183C9.61155 14.7431 10.3872 14.7431 10.8904 15.2183L11.5722 15.8627C11.771 16.0506 12.0611 16.0949 12.3052 15.9748L12.985 15.6398C13.2277 15.5203 13.3741 15.2613 13.3544 14.986L13.2868 14.0376C13.2369 13.3388 13.7205 12.7186 14.3977 12.6126L15.315 12.4689C15.5821 12.4273 15.7973 12.2226 15.8577 11.9527L16.025 11.2023C16.0854 10.9325 15.9784 10.6526 15.7553 10.4968L14.9896 9.96051C14.4246 9.56448 14.252 8.79122 14.5932 8.18375L15.0559 7.36082C15.1904 7.12119 15.1681 6.82115 14.9994 6.60501L14.5303 6.00291C14.3616 5.78677 14.0808 5.6975 13.8222 5.77872L12.9351 6.05661C12.2796 6.26201 11.5807 5.91766 11.3288 5.2659L10.9889 4.38456C10.8891 4.12681 10.6457 3.95766 10.3747 3.95833L9.62271 3.96034C9.35171 3.96102 9.10892 4.13151 9.0105 4.38993L8.67913 5.2612C8.42978 5.91699 7.72767 6.26402 7.07018 6.05728L6.14628 5.76731C5.88709 5.68542 5.60494 5.77536 5.4363 5.99284L4.97041 6.59561C4.80178 6.81376 4.78143 7.11448 4.91857 7.35411L5.39168 8.17905C5.74011 8.78719 5.5695 9.56784 5.00125 9.96588L4.24468 10.4962C4.02158 10.6526 3.91462 10.9325 3.97499 11.2016L4.14232 11.9521C4.20203 12.2226 4.41726 12.4273 4.68432 12.4689Z" stroke="#ADA9BB" stroke-width="1.5" stroke-linecap="round" stroke-linejoin="round"/>
  <path d="M11.3259 8.6741C12.058 9.40625 12.058 10.5937 11.3259 11.3259C10.5938 12.058 9.40627 12.058 8.67412 11.3259C7.94197 10.5937 7.94197 9.40625 8.67412 8.6741C9.40627 7.94196 10.5938 7.94196 11.3259 8.6741Z" stroke="#ADA9BB" stroke-width="1.5" stroke-linecap="round" stroke-linejoin="round"/>
</svg>