<svg xmlns="http://www.w3.org/2000/svg" width="20" height="20" viewBox="0 0 20 20" fill="none">
  <path d="M6.45831 3.95834V5.20834M9.99998 3.95834V5.20834M13.5416 3.95834V5.20834M5.62498 16.0417H14.375C15.2955 16.0417 16.0416 15.2955 16.0416 14.375V8.95834C16.0416 8.03787 15.2955 7.29168 14.375 7.29168H5.62498C4.70451 7.29168 3.95831 8.03787 3.95831 8.95834V14.375C3.95831 15.2955 4.70451 16.0417 5.62498 16.0417ZM11.875 11.6667C11.875 12.7022 11.0355 13.5417 9.99998 13.5417C8.96445 13.5417 8.12498 12.7022 8.12498 11.6667C8.12498 10.6311 8.96445 9.79168 9.99998 9.79168C11.0355 9.79168 11.875 10.6311 11.875 11.6667Z" stroke="#64748B" stroke-width="1.5" stroke-linecap="round" stroke-linejoin="round"/>
</svg>